<svg width="28" height="28" viewBox="0 0 28 28" fill="none" xmlns="http://www.w3.org/2000/svg">
<mask id="mask0_71_23" style="mask-type:alpha" maskUnits="userSpaceOnUse" x="0" y="0" width="28" height="28">
<rect width="28" height="28" fill="#D9D9D9"/>
</mask>
<g mask="url(#mask0_71_23)">
<path d="M15.6176 14L12.0301 17.5875L12.8333 18.4199L17.2532 14L12.8333 9.58008L12.0301 10.4125L15.6176 14ZM14.0038 24.5C12.5519 24.5 11.1868 24.2245 9.9085 23.6734C8.63042 23.1224 7.51858 22.3745 6.573 21.4299C5.62742 20.4853 4.8789 19.3744 4.32746 18.0973C3.77582 16.8204 3.5 15.4559 3.5 14.0038C3.5 12.5519 3.77553 11.1868 4.32658 9.9085C4.87764 8.63042 5.62547 7.51858 6.57008 6.573C7.51469 5.62742 8.62556 4.8789 9.90267 4.32746C11.1796 3.77582 12.5441 3.5 13.9962 3.5C15.4481 3.5 16.8132 3.77553 18.0915 4.32658C19.3696 4.87764 20.4814 5.62547 21.427 6.57008C22.3726 7.51469 23.1211 8.62556 23.6725 9.90267C24.2242 11.1796 24.5 12.5441 24.5 13.9962C24.5 15.4481 24.2245 16.8132 23.6734 18.0915C23.1224 19.3696 22.3745 20.4814 21.4299 21.427C20.4853 22.3726 19.3744 23.1211 18.0973 23.6725C16.8204 24.2242 15.4559 24.5 14.0038 24.5ZM14 23.3333C16.6056 23.3333 18.8125 22.4292 20.6208 20.6208C22.4292 18.8125 23.3333 16.6056 23.3333 14C23.3333 11.3944 22.4292 9.1875 20.6208 7.37917C18.8125 5.57083 16.6056 4.66667 14 4.66667C11.3944 4.66667 9.1875 5.57083 7.37917 7.37917C5.57083 9.1875 4.66667 11.3944 4.66667 14C4.66667 16.6056 5.57083 18.8125 7.37917 20.6208C9.1875 22.4292 11.3944 23.3333 14 23.3333Z" fill="white" fill-opacity="0.8"/>
</g>
</svg>
