<svg width="188" height="62" viewBox="0 0 188 62" fill="none" xmlns="http://www.w3.org/2000/svg">
<g clip-path="url(#clip0_17_45)">
<path d="M54.9951 47.143C53.7105 46.6867 53.4671 46.3825 53.4671 45.8591C53.4671 45.3356 53.8367 44.9196 54.7156 44.9196C55.3602 44.9196 55.7884 45.1299 56.2571 45.5146L56.7169 44.9554C56.176 44.5259 55.6261 44.2754 54.7607 44.2754C53.5617 44.2754 52.7504 44.8838 52.7504 45.9038C52.7504 46.8254 53.2191 47.2727 54.6074 47.7648C55.7839 48.1853 56.14 48.5209 56.14 49.1114C56.14 49.7869 55.6081 50.2074 54.7562 50.2074C54.0936 50.2074 53.5347 49.9032 53.0479 49.4424L52.5746 49.9703C53.0794 50.4803 53.8592 50.8561 54.7336 50.8561C56.0723 50.8561 56.8611 50.0777 56.8611 49.0801C56.8611 48.0824 56.4239 47.6575 54.9996 47.1475L54.9951 47.143Z" fill="white"/>
<path d="M59.7729 45.8725C59.1464 45.8725 58.5785 46.0246 58.1548 46.2527L58.4162 46.8075C58.8083 46.5793 59.223 46.4406 59.7279 46.4406C60.431 46.4406 60.7736 46.7851 60.7736 47.5009V48.0646C60.4896 47.908 60.0524 47.7872 59.5701 47.7872C58.619 47.7872 57.7266 48.2435 57.7266 49.3172C57.7266 50.4714 58.5154 50.8471 59.2636 50.8471C59.9577 50.8471 60.431 50.525 60.7736 50.1627V50.7487H61.4587V47.4114C61.4587 46.3019 60.8096 45.8635 59.7729 45.8635V45.8725ZM60.7736 49.5811C60.4806 49.9793 60.0118 50.2969 59.3898 50.2969C58.7993 50.2969 58.4027 49.9882 58.4027 49.2769C58.4027 48.6774 58.8264 48.3374 59.534 48.3374C60.12 48.3374 60.4581 48.4448 60.7736 48.6148V49.5856V49.5811Z" fill="white"/>
<path d="M68.3731 47.9528V50.7533H69.0582V47.841C69.0582 46.4452 68.4452 45.8726 67.4626 45.8726C66.6783 45.8726 66.2862 46.2349 66.0022 46.6912C65.7723 46.2349 65.3621 45.8726 64.6815 45.8726C64.1136 45.8726 63.7079 46.1454 63.46 46.557V45.9755H62.7659V50.7578H63.46V47.9573C63.46 46.897 63.8702 46.4631 64.5328 46.4631C65.1954 46.4631 65.5695 46.8612 65.5695 47.9573V50.7578H66.2591V47.9573C66.2591 46.897 66.6783 46.4631 67.3319 46.4631C68.026 46.4631 68.3686 46.8612 68.3686 47.9573L68.3731 47.9528Z" fill="white"/>
<path d="M71.8213 47.9705C71.0055 47.6037 70.7621 47.4471 70.7621 47.04C70.7621 46.6911 71.0505 46.4495 71.5599 46.4495C72.0692 46.4495 72.3847 46.5837 72.7589 46.879L73.142 46.3734C72.7769 46.0737 72.263 45.8679 71.605 45.8679C70.726 45.8679 70.0995 46.36 70.0995 47.0847C70.0995 47.8497 70.5006 48.1405 71.4697 48.5521C72.3216 48.9145 72.6056 49.1337 72.6056 49.5273C72.6056 49.9926 72.2946 50.2655 71.632 50.2655C71.1542 50.2655 70.7035 50.0731 70.3203 49.7376L69.9147 50.2342C70.3744 50.601 70.9514 50.8471 71.614 50.8471C72.4478 50.8471 73.2637 50.44 73.2637 49.496C73.2637 48.6416 72.7318 48.3776 71.8168 47.9661L71.8213 47.9705Z" fill="white"/>
<path d="M77.2843 48.767C77.2843 49.8138 76.7569 50.2567 76.0943 50.2567C75.319 50.2567 74.9539 49.7959 74.9539 48.767V45.9709H74.2688V48.8833C74.2688 50.2567 74.9404 50.8517 75.9546 50.8517C76.5631 50.8517 77.0093 50.5698 77.2843 50.1672V50.7533H77.9739V45.9709H77.2843V48.767Z" fill="white"/>
<path d="M82.8419 50.7533V47.841C82.8419 46.4631 82.1703 45.8726 81.1516 45.8726C80.5477 45.8726 80.0969 46.1544 79.8265 46.557V45.9755H79.1323V50.7578H79.8265V47.9573C79.8265 46.9104 80.3448 46.4631 81.0119 46.4631C81.7827 46.4631 82.1523 46.9283 82.1523 47.9573V50.7578H82.8419V50.7533Z" fill="white"/>
<path d="M85.01 51.9878L85.2309 52.5068C87.0203 52.4531 87.6694 51.7597 87.6694 50.3192V45.9663H86.9797V46.5032C86.6417 46.1184 86.227 45.8679 85.623 45.8679C84.6133 45.8679 83.802 46.7403 83.802 48.4358C83.802 50.1313 84.5683 50.8471 85.5283 50.8471C86.1819 50.8471 86.6417 50.525 86.9797 50.1626V50.4087C86.9797 51.5226 86.6146 51.9431 85.0055 51.9834L85.01 51.9878ZM85.7041 50.2565C84.9424 50.2565 84.4826 49.6302 84.4826 48.4268C84.4826 47.1429 84.8748 46.4584 85.6771 46.4584C86.2495 46.4584 86.7138 46.7761 86.9797 47.1742V49.5676C86.6417 49.9881 86.218 50.2565 85.7041 50.2565Z" fill="white"/>
<path d="M95.2689 47.5187C95.2689 45.3311 94.0248 44.3738 92.3391 44.3738H90.6398V50.7532H92.2129C93.9302 50.7532 95.2689 49.8316 95.2689 47.5187ZM91.3564 45.018H92.285C93.7634 45.018 94.5522 45.9127 94.5522 47.5411C94.5522 49.3753 93.6868 50.1045 92.303 50.1045H91.3564V45.018Z" fill="white"/>
<path d="M97.1035 46.5614V45.9709H96.4138V50.7532H97.1035V47.9438C97.1035 47.0311 97.4821 46.4988 98.1537 46.4988C98.4737 46.4988 98.6811 46.5704 98.8749 46.6822L99.0462 45.9933C98.8839 45.9217 98.654 45.877 98.2934 45.877C97.7751 45.877 97.3198 46.1856 97.1035 46.5659V46.5614Z" fill="white"/>
<path d="M103.166 50.2969L102.841 49.8048C102.4 50.0956 102.071 50.2611 101.507 50.2611C100.723 50.2611 100.231 49.6124 100.168 48.5969H103.378C103.4 48.4851 103.409 48.3867 103.409 48.2256C103.409 46.8612 102.724 45.877 101.467 45.877C100.322 45.877 99.4788 46.8209 99.4788 48.3374C99.4788 50.2208 100.552 50.8561 101.435 50.8561C102.161 50.8561 102.584 50.6637 103.166 50.3014V50.2969ZM101.467 46.463C102.309 46.463 102.715 47.1117 102.769 48.0377H100.168C100.25 46.9685 100.75 46.463 101.467 46.463Z" fill="white"/>
<path d="M105.708 50.8515C106.398 50.8515 106.871 50.5294 107.209 50.1671V50.7531H107.899V47.4158C107.899 46.3063 107.25 45.8679 106.213 45.8679C105.586 45.8679 105.018 46.02 104.595 46.2482L104.852 46.8029C105.248 46.5748 105.658 46.4361 106.163 46.4361C106.871 46.4361 107.209 46.7805 107.209 47.4963V48.06C106.925 47.9034 106.492 47.7826 106.01 47.7826C105.054 47.7826 104.157 48.2389 104.157 49.3126C104.157 50.4668 104.951 50.8426 105.704 50.8426L105.708 50.8515ZM105.974 48.3329C106.56 48.3329 106.902 48.4403 107.214 48.6103V49.581C106.921 49.9792 106.452 50.2968 105.83 50.2968C105.244 50.2968 104.843 49.9881 104.843 49.2768C104.843 48.6774 105.271 48.3374 105.974 48.3374V48.3329Z" fill="white"/>
<path d="M114.813 47.9528V50.7533H115.503V47.841C115.503 46.4452 114.89 45.8726 113.907 45.8726C113.127 45.8726 112.731 46.2349 112.451 46.6912C112.221 46.2349 111.811 45.8726 111.131 45.8726C110.558 45.8726 110.157 46.1454 109.909 46.557V45.9755H109.224V50.7578H109.909V47.9573C109.909 46.897 110.324 46.4631 110.986 46.4631C111.649 46.4631 112.027 46.8612 112.027 47.9573V50.7578H112.713V47.9573C112.713 46.897 113.132 46.4631 113.79 46.4631C114.484 46.4631 114.827 46.8612 114.827 47.9573L114.813 47.9528Z" fill="white"/>
<path d="M54.9951 56.6314C53.7059 56.1751 53.4716 55.8754 53.4716 55.3475C53.4716 54.8196 53.8412 54.4125 54.7201 54.4125C55.3647 54.4125 55.7974 54.6183 56.2617 55.003L56.7214 54.4483C56.1805 54.0233 55.6261 53.7683 54.7652 53.7683C53.5617 53.7683 52.7549 54.3678 52.7549 55.3967C52.7549 56.3183 53.2237 56.7612 54.6119 57.2533C55.7884 57.6783 56.1445 58.0093 56.1445 58.6043C56.1445 59.2753 55.6126 59.6959 54.7562 59.6959C54.0936 59.6959 53.5347 59.3917 53.0479 58.9309L52.5746 59.4588C53.0794 59.9688 53.8592 60.3401 54.7336 60.3401C56.0723 60.3401 56.8566 59.5661 56.8566 58.564C56.8566 57.5619 56.4194 57.1414 54.9996 56.6314H54.9951Z" fill="white"/>
<path d="M59.782 55.9514C60.2688 55.9514 60.5888 56.1214 60.9359 56.4346L61.3506 55.9246C60.972 55.5935 60.4716 55.3564 59.8271 55.3564C58.8174 55.3564 57.7491 56.1035 57.7491 57.8706C57.7491 59.5393 58.7182 60.3356 59.7775 60.3356C60.4536 60.3356 60.9224 60.0806 61.328 59.669L60.9134 59.2351C60.5843 59.5527 60.2733 59.7406 59.8045 59.7406C58.9526 59.7406 58.4433 58.9846 58.4433 57.808C58.4433 56.6314 59.0247 55.9425 59.7775 55.9425L59.782 55.9514Z" fill="white"/>
<path d="M64.2939 55.3609C63.6899 55.3609 63.2346 55.6427 62.9597 56.0453V53.7996H62.2745V60.2505H62.9597V57.45C62.9597 56.4032 63.487 55.9558 64.1541 55.9558C64.9294 55.9558 65.2945 56.4166 65.2945 57.45V60.2505H65.9841V57.3292C65.9841 55.9558 65.3125 55.3609 64.2939 55.3609Z" fill="white"/>
<path d="M69.0582 55.3608C67.8863 55.3608 66.9532 56.2332 66.9532 57.8571C66.9532 59.4811 67.8502 60.3445 69.0222 60.3445C70.1941 60.3445 71.1361 59.4453 71.1361 57.8213C71.1361 56.1974 70.2301 55.3608 69.0582 55.3608ZM69.0447 59.7495C68.2063 59.7495 67.6429 59.0963 67.6429 57.8392C67.6429 56.5821 68.2063 55.9558 69.0447 55.9558C69.8831 55.9558 70.4465 56.5821 70.4465 57.8392C70.4465 59.0963 69.8786 59.7495 69.0447 59.7495Z" fill="white"/>
<path d="M72.8625 53.7952H72.1729V60.2461H72.8625V53.7952Z" fill="white"/>
<path d="M76.0132 55.3608C75.3866 55.3608 74.8187 55.5174 74.3995 55.7456L74.6564 56.3048C75.0531 56.0766 75.4678 55.9379 75.9726 55.9379C76.6758 55.9379 77.0183 56.2869 77.0183 56.9937V57.5619C76.7344 57.4053 76.3017 57.2845 75.8194 57.2845C74.8638 57.2845 73.9713 57.7408 73.9713 58.819C73.9713 59.9731 74.7601 60.3445 75.5129 60.3445C76.2025 60.3445 76.6758 60.0268 77.0183 59.6645V60.2505H77.708V56.9177C77.708 55.7993 77.0544 55.3653 76.0177 55.3653L76.0132 55.3608ZM77.0138 59.0695C76.7253 59.4632 76.2476 59.7853 75.63 59.7853C75.0441 59.7853 74.6474 59.4766 74.6474 58.7653C74.6474 58.1613 75.0711 57.8303 75.7788 57.8303C76.3648 57.8303 76.7028 57.9287 77.0138 58.1032V59.0695Z" fill="white"/>
<path d="M79.7048 56.0544V55.4549H79.0151V60.2417H79.7048V57.4323C79.7048 56.5241 80.0744 55.9828 80.7505 55.9828C81.075 55.9828 81.2824 56.0544 81.4762 56.1663L81.652 55.4728C81.4852 55.4013 81.2598 55.3521 80.8992 55.3521C80.3854 55.3521 79.9211 55.6607 79.7093 56.0499L79.7048 56.0544Z" fill="white"/>
<path d="M84.2933 57.4634C83.4775 57.0966 83.2296 56.9311 83.2296 56.5329C83.2296 56.1885 83.5226 55.9424 84.0274 55.9424C84.5322 55.9424 84.8568 56.0811 85.2309 56.3719L85.614 55.8708C85.2444 55.5711 84.7351 55.3608 84.0725 55.3608C83.198 55.3608 82.5625 55.8529 82.5625 56.5821C82.5625 57.3113 82.9682 57.6379 83.9328 58.045C84.7847 58.4074 85.0686 58.6311 85.0686 59.0203C85.0686 59.49 84.7576 59.7584 84.0995 59.7584C83.6172 59.7584 83.171 59.566 82.7834 59.2305L82.3822 59.7316C82.842 60.0984 83.4189 60.34 84.0815 60.34C84.9154 60.34 85.7312 59.9284 85.7312 58.9934C85.7312 58.1345 85.1993 57.875 84.2888 57.4634H84.2933Z" fill="white"/>
<path d="M88.8773 55.3609C88.2643 55.3609 87.8181 55.6427 87.5432 56.0453V53.7996H86.8535V60.2505H87.5432V57.45C87.5432 56.4032 88.066 55.9558 88.7376 55.9558C89.5084 55.9558 89.8735 56.4166 89.8735 57.45V60.2505H90.5631V57.3292C90.5631 55.9558 89.896 55.3609 88.8773 55.3609Z" fill="white"/>
<path d="M92.6094 55.4548H91.9243V60.2416H92.6094V55.4548Z" fill="white"/>
<path d="M92.2805 53.6296C92.001 53.6296 91.7802 53.8488 91.7802 54.1262C91.7802 54.4036 92.001 54.6094 92.2805 54.6094C92.5374 54.6094 92.7583 54.3857 92.7583 54.1262C92.7583 53.8488 92.5374 53.6296 92.2805 53.6296Z" fill="white"/>
<path d="M96.1388 55.3608C95.4898 55.3608 95.03 55.6829 94.6874 56.0453V55.4593H93.9978V62.0042H94.6874V59.7092C95.0255 60.0895 95.4402 60.3445 96.0487 60.3445C97.0538 60.3445 97.8652 59.4676 97.8652 57.7766C97.8652 56.0856 97.0989 55.3608 96.1388 55.3608ZM95.9901 59.7495C95.4222 59.7495 94.9534 59.4318 94.6874 59.0292V56.6403C95.0255 56.2243 95.4492 55.9514 95.963 55.9514C96.7293 55.9514 97.1891 56.5777 97.1891 57.7811C97.1891 59.065 96.7924 59.745 95.9946 59.745L95.9901 59.7495Z" fill="white"/>
<path d="M101.512 54.5109H104.568V53.8667H100.795V60.2461H101.512V57.2711H103.274V56.6269H101.512V54.5109Z" fill="white"/>
<path d="M106.659 55.3608C105.487 55.3608 104.55 56.2332 104.55 57.8571C104.55 59.4811 105.451 60.3445 106.623 60.3445C107.795 60.3445 108.737 59.4453 108.737 57.8213C108.737 56.1974 107.84 55.3608 106.659 55.3608ZM106.641 59.7495C105.803 59.7495 105.248 59.0963 105.248 57.8392C105.248 56.5821 105.807 55.9558 106.641 55.9558C107.475 55.9558 108.047 56.5821 108.047 57.8392C108.047 59.0963 107.48 59.7495 106.641 59.7495Z" fill="white"/>
<path d="M112.537 58.2553C112.537 59.3022 112.018 59.7495 111.347 59.7495C110.576 59.7495 110.206 59.2887 110.206 58.2553V55.4548H109.521V58.3716C109.521 59.745 110.193 60.34 111.212 60.34C111.811 60.34 112.262 60.0627 112.537 59.66V60.2461H113.231V55.4593H112.537V58.2598V58.2553Z" fill="white"/>
<path d="M116.404 55.3609C115.8 55.3609 115.349 55.6428 115.075 56.0454V55.4593H114.385V60.2461H115.075V57.4456C115.075 56.3988 115.597 55.9514 116.269 55.9514C117.04 55.9514 117.405 56.4122 117.405 57.4456V60.2461H118.094V57.3248C118.094 55.9514 117.423 55.3564 116.404 55.3564V55.3609Z" fill="white"/>
<path d="M122.237 56.0007C121.894 55.6159 121.484 55.3565 120.876 55.3565C119.866 55.3565 119.059 56.2288 119.059 57.9288C119.059 59.6288 119.821 60.3401 120.785 60.3401C121.439 60.3401 121.894 60.0225 122.232 59.6601V60.2461H122.922V53.7952H122.232V56.0007H122.237ZM122.237 59.0561C121.894 59.4722 121.475 59.7451 120.961 59.7451C120.199 59.7451 119.74 59.1188 119.74 57.9154C119.74 56.627 120.132 55.947 120.934 55.947C121.502 55.947 121.966 56.2646 122.237 56.6672V59.0517V59.0561Z" fill="white"/>
<path d="M125.843 55.3608C125.221 55.3608 124.653 55.5174 124.229 55.7456L124.482 56.3048C124.878 56.0766 125.293 55.9379 125.798 55.9379C126.501 55.9379 126.839 56.2869 126.839 56.9937V57.5619C126.555 57.4053 126.122 57.2845 125.635 57.2845C124.684 57.2845 123.792 57.7408 123.792 58.819C123.792 59.9731 124.585 60.3445 125.338 60.3445C126.028 60.3445 126.501 60.0268 126.839 59.6645V60.2505H127.529V56.9177C127.529 55.7993 126.879 55.3653 125.838 55.3653L125.843 55.3608ZM126.839 59.0695C126.546 59.4632 126.082 59.7853 125.451 59.7853C124.869 59.7853 124.477 59.4766 124.477 58.7653C124.477 58.1613 124.896 57.8303 125.604 57.8303C126.19 57.8303 126.532 57.9287 126.839 58.1032V59.0695Z" fill="white"/>
<path d="M129.728 53.7952H129.034V55.4549H128.439V56.032H129.034V59.2575C129.034 60.0493 129.358 60.3356 129.958 60.3356C130.319 60.3356 130.575 60.2819 130.841 60.1746L130.891 59.584C130.67 59.6735 130.49 59.7183 130.21 59.7183C129.845 59.7183 129.728 59.5706 129.728 59.1456V56.032H130.923V55.4549H129.728V53.7952Z" fill="white"/>
<path d="M132.487 53.6296C132.203 53.6296 131.977 53.8488 131.977 54.1262C131.977 54.4036 132.203 54.6094 132.487 54.6094C132.744 54.6094 132.96 54.3857 132.96 54.1262C132.96 53.8488 132.739 53.6296 132.487 53.6296Z" fill="white"/>
<path d="M132.816 55.4548H132.126V60.2416H132.816V55.4548Z" fill="white"/>
<path d="M135.962 55.3608C134.79 55.3608 133.852 56.2332 133.852 57.8571C133.852 59.4811 134.749 60.3445 135.926 60.3445C137.102 60.3445 138.035 59.4453 138.035 57.8213C138.035 56.1974 137.134 55.3608 135.962 55.3608ZM135.944 59.7495C135.11 59.7495 134.547 59.0963 134.547 57.8392C134.547 56.5821 135.11 55.9558 135.944 55.9558C136.778 55.9558 137.35 56.5821 137.35 57.8392C137.35 59.0963 136.782 59.7495 135.944 59.7495Z" fill="white"/>
<path d="M141.051 55.3609C140.447 55.3609 139.996 55.6428 139.716 56.0454V55.4593H139.027V60.2461H139.716V57.4456C139.716 56.3988 140.239 55.9514 140.911 55.9514C141.682 55.9514 142.051 56.4122 142.051 57.4456V60.2461H142.736V57.3248C142.736 55.9514 142.065 55.3564 141.051 55.3564V55.3609Z" fill="white"/>
<path d="M79.0918 31.8164C76.3242 31.8209 74.0435 33.9682 74.0435 36.6613C74.0435 39.3545 76.3242 41.4794 79.0918 41.4884C81.8864 41.4794 84.1446 39.3276 84.1446 36.6613C84.1446 33.9951 81.8864 31.8209 79.0918 31.8164ZM79.0242 39.2784C77.5773 39.2784 76.4865 38.1063 76.4865 36.6613C76.4865 35.2164 77.6539 34.0219 79.0963 34.0219C80.5386 34.0219 81.6655 35.194 81.6655 36.6613C81.6655 38.1287 80.4846 39.2784 79.0287 39.2784H79.0242Z" fill="white"/>
<path d="M55.9281 28.4834C56.6989 29.2394 57.5823 29.9015 58.4523 30.3265L58.5424 30.3757L60.0344 28.6265L59.8901 28.546C58.4748 27.7855 57.366 26.8237 56.6403 25.6113C55.9191 24.4168 55.5495 23.03 55.5495 21.3703V19.8135H52.8811V21.2048C52.8811 23.0032 52.4709 24.4168 51.7002 25.656C50.8392 27.0294 49.5636 28.1344 47.932 29.1589L47.7877 29.2484L49.4059 30.9125L49.496 30.8633C50.4606 30.3444 51.4838 29.5436 52.3718 28.6489C53.1425 27.866 53.8096 27.0294 54.2153 26.2376C54.6074 27.016 55.2069 27.8078 55.9281 28.4878V28.4834Z" fill="white"/>
<path d="M53.0388 40.3431H64.2082V32.7693H53.0388V40.3431ZM55.5495 34.9077H61.6976V38.2047H55.5495V34.9077Z" fill="white"/>
<path d="M90.2792 40.3431H102.909V32.7693H90.2792V40.3431ZM92.7628 34.9077H100.43V38.2047H92.7628V34.9077Z" fill="white"/>
<path d="M64.2534 19.3662H61.7698V31.9013H64.2534V26.354H67.1607V24.1262H64.2534V19.3662Z" fill="white"/>
<path d="M115.746 29.1232C116.562 29.8255 117.495 30.416 118.374 30.7963L118.464 30.8366L119.807 29.0337L119.663 28.9621C118.383 28.3134 117.243 27.5082 116.422 26.524C115.588 25.5219 115.093 24.314 115.093 22.8601V22.4351H118.789V20.2788H108.755V22.4351H112.447V22.954C112.447 24.2782 112.005 25.513 111.27 26.5821C110.409 27.8661 109.152 28.8995 107.93 29.5705L107.768 29.6555L109.418 31.351L109.508 31.3063C110.396 30.8053 111.378 30.0492 112.217 29.1992C112.888 28.5013 113.492 27.7632 113.862 27.025C114.308 27.7408 114.993 28.4566 115.751 29.1232H115.746Z" fill="white"/>
<path d="M133.708 34.9568H142.736V40.3385H145.243V32.8184H133.708V34.9568Z" fill="white"/>
<path d="M139.937 26.3361C139.937 25.1506 139.401 24.0591 138.608 23.227H141.087V21.093H136.354V18.7444H133.663V21.093H128.818V23.227H131.351C130.576 24.0591 130.039 25.1417 130.039 26.3361C130.039 28.98 132.234 31.1274 134.979 31.1363C137.724 31.1274 139.933 28.98 139.937 26.3361ZM132.433 26.2377C132.433 24.7748 133.677 23.5356 134.979 23.5356C136.282 23.5356 137.521 24.7793 137.526 26.2377C137.526 27.6782 136.282 28.9219 134.979 28.9264C133.672 28.9219 132.437 27.6782 132.433 26.2377Z" fill="white"/>
<path d="M145.243 19.3662H142.764V31.9461H145.243V27.1458H148.159V24.918H145.243V19.3662Z" fill="white"/>
<path d="M124.206 19.3662H121.727V31.9461H124.206V26.354H127.118V24.1262H124.206V19.3662Z" fill="white"/>
<path d="M82.1252 23.0972H78.2218V25.3027H82.1252V32.3442H84.6088V19.3662H82.1252V23.0972Z" fill="white"/>
<path d="M75.8194 28.8099C76.5947 29.5615 77.5007 30.2236 78.3661 30.671L78.4608 30.7247L79.9527 28.9755L79.8085 28.8949C78.3931 28.1568 77.3069 27.1994 76.5767 26.005C75.8374 24.8195 75.4678 23.379 75.4678 21.7192V19.8135H72.7949V21.5582C72.7949 23.3566 72.3893 24.7658 71.6365 25.9826C70.7801 27.3784 69.4775 28.4923 67.8458 29.5078L67.7061 29.5973L69.3332 31.266L69.4144 31.2123C70.3744 30.6889 71.3751 29.9328 72.2631 29.0694C73.0654 28.2776 73.7325 27.4142 74.1381 26.5865C74.5213 27.3426 75.1072 28.1121 75.8194 28.8144V28.8099Z" fill="white"/>
<path d="M118.883 31.8164C116.116 31.8209 113.835 33.9682 113.83 36.6613C113.835 39.3276 116.111 41.4794 118.883 41.4884C121.673 41.4794 123.936 39.3276 123.936 36.6613C123.936 33.9951 121.673 31.8209 118.883 31.8164ZM118.811 39.2784C117.369 39.2784 116.269 38.1063 116.269 36.6613C116.269 35.2164 117.432 34.0219 118.883 34.0219C120.335 34.0219 121.448 35.194 121.453 36.6613C121.453 38.1018 120.267 39.2784 118.811 39.2784Z" fill="white"/>
<path d="M93.3037 26.5553H95.7872V20.1536H89.0847V22.283H93.3037V26.5553Z" fill="white"/>
<path d="M100.759 26.5553H103.247V20.1536H96.5444V22.283H100.759V26.5553Z" fill="white"/>
<path d="M164.066 25.0343H161.979V19.7152H159.63V39.8017H161.979V27.4501H164.066V40.3386H166.5V19.3662H164.066V25.0343Z" fill="white"/>
<path d="M156.187 27.8124C155.628 26.6 155.398 25.2445 155.398 23.5803V22.7885H158.215V20.5293H150.03V22.7885H152.937V23.625C152.937 25.1998 152.729 26.4882 152.229 27.6826C151.648 29.056 150.67 30.2908 149.11 31.6149L149.002 31.7134L150.543 33.2299L150.638 33.1583C151.413 32.5902 152.225 31.767 152.901 30.9171C153.473 30.2013 153.955 29.4587 154.257 28.8055C154.568 29.4408 155.055 30.17 155.623 30.85C156.281 31.6463 157.025 32.4023 157.737 32.8541L157.832 32.9168L159.13 31.3778L159.026 31.2839C157.629 30.076 156.764 28.9979 156.196 27.8079L156.187 27.8124Z" fill="white"/>
<path d="M87.0068 29.5347H95.2509V31.9236H97.9418V29.5347H106.317V27.3918H87.0068V29.5347Z" fill="white"/>
<path d="M180.639 28.8503H172.247V22.5111H178.638V20.2788H169.731V31.0155H180.639V28.8503Z" fill="white"/>
<path d="M175.893 33.655H173.382V40.3386H185.124V38.1376H175.893V33.655Z" fill="white"/>
<path d="M185.066 25.1731V19.3618H182.587V34.8361H185.066V27.4009H188V25.1731H185.066Z" fill="white"/>
<path d="M52.6512 12.893L46.2191 10.2491L52.6512 7.60517L51.5063 4.87178L45.0787 7.51569L47.7426 1.13183L44.984 0L42.3247 6.38387L39.6608 0L36.9022 1.13183L39.5661 7.51569L33.1385 4.87178L31.9982 7.60517L38.4258 10.2491L31.9982 12.893L33.1385 15.6264L39.5661 12.9825L36.9022 19.3663L39.6608 20.4982L42.3247 14.1188L44.984 20.4982L47.7426 19.3619L45.0787 12.9825L51.5063 15.6264L52.6512 12.893Z" fill="#009FE3"/>
<path d="M11.0342 30.7024H15.3118V19.3662H0.685181V23.1867H11.0342V30.7024Z" fill="#009FE3"/>
<path d="M27.7206 30.7024H31.9982V19.3662H17.3716V23.1867H27.7206V30.7024Z" fill="#009FE3"/>
<path d="M0 36.5673H27.7206V42.4054H31.9982V32.7468H0V36.5673Z" fill="#009FE3"/>
<path d="M10.349 60.2463H31.9981V44.3694H10.349V60.2463ZM14.6265 48.1899H27.7251V56.4258H14.6265V48.1899Z" fill="#009FE3"/>
</g>
<defs>
<clipPath id="clip0_17_45">
<rect width="188" height="62" fill="white"/>
</clipPath>
</defs>
</svg>
