<svg xmlns="http://www.w3.org/2000/svg" width="40.663" height="36.145" viewBox="0 0 40.663 36.145">
  <path id="photo_camera_24dp_FILL0_wght200_GRAD0_opsz24" d="M140.331-771.241a8.138,8.138,0,0,0,5.984-2.444,8.138,8.138,0,0,0,2.444-5.984,8.138,8.138,0,0,0-2.444-5.984,8.138,8.138,0,0,0-5.984-2.444,8.138,8.138,0,0,0-5.984,2.444,8.138,8.138,0,0,0-2.444,5.984,8.138,8.138,0,0,0,2.444,5.984A8.138,8.138,0,0,0,140.331-771.241Zm0-2.259a5.972,5.972,0,0,1-4.4-1.768,5.972,5.972,0,0,1-1.768-4.4,5.972,5.972,0,0,1,1.768-4.4,5.972,5.972,0,0,1,4.4-1.768,5.972,5.972,0,0,1,4.4,1.768,5.972,5.972,0,0,1,1.768,4.4,5.972,5.972,0,0,1-1.768,4.4A5.972,5.972,0,0,1,140.331-773.5Zm-16.682,9.644a3.535,3.535,0,0,1-2.6-1.045A3.535,3.535,0,0,1,120-767.5v-24.328a3.535,3.535,0,0,1,1.045-2.6,3.535,3.535,0,0,1,2.6-1.045h6.681l3.085-3.354a3.433,3.433,0,0,1,1.192-.856A3.66,3.66,0,0,1,136.1-800h8.471a3.66,3.66,0,0,1,1.488.308,3.433,3.433,0,0,1,1.192.856l3.085,3.354h6.681a3.535,3.535,0,0,1,2.6,1.045,3.535,3.535,0,0,1,1.045,2.6V-767.5a3.535,3.535,0,0,1-1.045,2.6,3.535,3.535,0,0,1-2.6,1.045Zm0-2.259h33.364a1.355,1.355,0,0,0,1-.391,1.355,1.355,0,0,0,.391-1v-24.328a1.355,1.355,0,0,0-.391-1,1.355,1.355,0,0,0-1-.391h-7.672l-4.166-4.518h-9.688l-4.166,4.518h-7.672a1.355,1.355,0,0,0-1,.391,1.355,1.355,0,0,0-.391,1V-767.5a1.355,1.355,0,0,0,.391,1A1.355,1.355,0,0,0,123.649-766.114ZM140.331-779.669Z" transform="translate(-120 800)" fill="#fff"/>
</svg>
