<svg xmlns="http://www.w3.org/2000/svg" width="32.661" height="29.371" viewBox="0 0 32.661 29.371">
  <path id="commu_ico1" d="M61.854-826.009a27.854,27.854,0,0,0,1.258-5.84q.31-2.963.387-5.975a4.752,4.752,0,0,1-2.508-1.839A5.759,5.759,0,0,1,60-843.117v-1.794a38.259,38.259,0,0,0,8.744-4.3,41.935,41.935,0,0,0,7.587-6.167,41.933,41.933,0,0,0,7.587,6.167,38.26,38.26,0,0,0,8.744,4.3v1.794a5.758,5.758,0,0,1-.992,3.455,4.752,4.752,0,0,1-2.508,1.839q.078,3.012.387,5.975a27.854,27.854,0,0,0,1.258,5.84Zm1.639-18.664H89.168a42.237,42.237,0,0,1-6.854-3.788,51.329,51.329,0,0,1-5.983-4.754,51.328,51.328,0,0,1-5.983,4.754A42.237,42.237,0,0,1,63.494-844.673Zm16.725,5.444a2.654,2.654,0,0,0,2.266-1.174,4.526,4.526,0,0,0,.845-2.714H77.108a4.526,4.526,0,0,0,.845,2.714A2.654,2.654,0,0,0,80.219-839.229Zm-7.777,0a2.654,2.654,0,0,0,2.266-1.174,4.526,4.526,0,0,0,.845-2.714H69.332a4.526,4.526,0,0,0,.845,2.714A2.654,2.654,0,0,0,72.442-839.229Zm-7.777,0a2.654,2.654,0,0,0,2.266-1.174,4.526,4.526,0,0,0,.845-2.714H61.555A4.526,4.526,0,0,0,62.4-840.4,2.654,2.654,0,0,0,64.666-839.229Zm-.783,11.665h5.865q.41-2.632.619-5.24t.3-5.27a4.716,4.716,0,0,1-1.163-.767,4.352,4.352,0,0,1-.945-1.243,4.626,4.626,0,0,1-1.458,1.656,4.215,4.215,0,0,1-2.041.728q-.078,2.575-.3,5.107A30.98,30.98,0,0,1,63.882-827.564Zm7.429,0H81.35q-.4-2.527-.606-5.04t-.292-5.078a4.153,4.153,0,0,1-2.43-.606,4.277,4.277,0,0,1-1.691-1.907,4.261,4.261,0,0,1-1.7,1.907,4.158,4.158,0,0,1-2.421.606q-.087,2.566-.292,5.078T71.312-827.564Zm11.6,0h5.865a30.979,30.979,0,0,1-.87-5.029q-.224-2.532-.3-5.107a4.427,4.427,0,0,1-2.076-.728,3.909,3.909,0,0,1-1.424-1.716,3.516,3.516,0,0,1-.915,1.288,5.035,5.035,0,0,1-1.193.782q.087,2.662.3,5.27T82.914-827.564ZM88-839.229a2.654,2.654,0,0,0,2.266-1.174,4.526,4.526,0,0,0,.845-2.714H84.885a4.526,4.526,0,0,0,.845,2.714A2.654,2.654,0,0,0,88-839.229Z" transform="translate(-60 855.38)" fill="#fff"/>
</svg>
