<svg xmlns="http://www.w3.org/2000/svg" width="39.199" height="29.371" viewBox="0 0 39.199 29.371">
  <path id="commu_ico2" d="M87.23-770.629v-17.728l-6.048,4.511L80-785.4,99.581-800l8.51,6.311v-4.353h3.69v7.125l7.418,5.52-1.182,1.551-6.048-4.511v17.728h-9.979v-10.242h-4.82v10.242Zm1.958-1.958h6.025v-10.242h8.736v10.242h6.063V-789.8l-10.431-7.742L89.188-789.8Zm6.853-15.653h7.079a2.832,2.832,0,0,0-1.062-2.269,3.74,3.74,0,0,0-2.478-.89,3.747,3.747,0,0,0-2.478.887A2.828,2.828,0,0,0,96.041-788.24Zm-.828,15.653v-10.242h8.736v0H95.213Z" transform="translate(-80 800)" fill="#fff"/>
</svg>
