<svg xmlns="http://www.w3.org/2000/svg" width="24.188" height="29.371" viewBox="0 0 24.188 29.371">
  <path id="commu_ico4" d="M203.522-810.629a.836.836,0,0,1-.616-.248.836.836,0,0,1-.248-.615v-3.276a4.769,4.769,0,0,1-1.751-1.556,4.4,4.4,0,0,1-.907-2.743v-15.749q0-2.689,2.91-3.936T212.093-840q6.5,0,9.3,1.2a4.1,4.1,0,0,1,2.8,3.984v15.749a4.4,4.4,0,0,1-.907,2.743,4.769,4.769,0,0,1-1.751,1.556v3.276a.836.836,0,0,1-.248.615.836.836,0,0,1-.615.248h-.4a.836.836,0,0,1-.615-.248.836.836,0,0,1-.248-.615v-2.592H204.784v2.592a.836.836,0,0,1-.248.615.836.836,0,0,1-.615.248Zm8.592-24.985h0ZM219-824.451h0Zm-17.277-1.728H222.46v-7.708H201.728Zm4.327,7.974a1.839,1.839,0,0,0,1.363-.565,1.879,1.879,0,0,0,.557-1.371,1.839,1.839,0,0,0-.565-1.363,1.879,1.879,0,0,0-1.37-.557,1.84,1.84,0,0,0-1.363.565,1.879,1.879,0,0,0-.557,1.371,1.839,1.839,0,0,0,.565,1.363A1.879,1.879,0,0,0,206.055-818.2Zm12.094,0a1.839,1.839,0,0,0,1.363-.565,1.879,1.879,0,0,0,.557-1.371,1.839,1.839,0,0,0-.565-1.363,1.879,1.879,0,0,0-1.37-.557,1.84,1.84,0,0,0-1.363.565,1.879,1.879,0,0,0-.557,1.371,1.839,1.839,0,0,0,.565,1.363A1.879,1.879,0,0,0,218.149-818.2Zm-16.242-17.41h20.414q-.449-1.332-2.77-2a29.782,29.782,0,0,0-7.437-.663,29.192,29.192,0,0,0-7.408.673Q202.386-836.927,201.907-835.614Zm3.276,19.8H219a3.327,3.327,0,0,0,2.44-1.015,3.327,3.327,0,0,0,1.015-2.44v-5.183H201.728v5.183a3.327,3.327,0,0,0,1.015,2.44A3.327,3.327,0,0,0,205.183-815.812Z" transform="translate(-200 840)" fill="#fff"/>
</svg>
