<svg xmlns="http://www.w3.org/2000/svg" xmlns:xlink="http://www.w3.org/1999/xlink" width="206.758" height="34.772" viewBox="0 0 206.758 34.772">
  <defs>
    <clipPath id="clip-path">
      <rect id="사각형_18" data-name="사각형 18" width="132.184" height="34.772" fill="none"/>
    </clipPath>
  </defs>
  <g id="logo" transform="translate(-330 -26)">
    <g id="그룹_2" data-name="그룹 2" transform="translate(330 26)">
      <g id="그룹_1" data-name="그룹 1" transform="translate(0 0)" clip-path="url(#clip-path)">
        <path id="패스_1" data-name="패스 1" d="M49.365,17.385c0,9.6-11.051,17.386-24.684,17.386S0,26.988,0,17.385,11.051,0,24.681,0,49.365,7.785,49.365,17.385" transform="translate(0 0)" fill="#0d3896"/>
        <path id="패스_2" data-name="패스 2" d="M31.787,32.737c-10.556-.475-10.852-.955-8.915-1,0,0,39.668-1.7,9.853-3.92,0,0-4.787-.382,8.009-.778,0,0,3.293-.578-13.784-1.733,0,0,3.412-1.555,14.746-1.109l-3.7-7.607s-.607-3.156-.869-4.212S36.178.453,36.178.453c-1.118.141-2.463.241-2.463.241-4.668-.257-11.52,2.069-11.52,2.069l-1.537.312-.11,1.988a15.09,15.09,0,0,1,.11,4.08c.1,1.761-2.283,5.719-2.283,5.719l1.472,4.224-.069,2.5,1.539,3.767s9.6.994,12.308.862c0,0,6.125.3-2.238.686,0,0-23.491-.091-17.307.888,0,0,11.05.949,16.839,1.35,0,0,6.378.74-10.009,1.707,0,0-7.679.59-.3,2.026,0,0,12.129,1.894,22.341.012,0,0,3.351-.958-1.207-.523,0,0-8.871.423-9.954.374" transform="translate(-6.126 -0.213)" fill="#fff"/>
        <path id="패스_3" data-name="패스 3" d="M73.806,30.264s-7.08-.387-8.085,1.6c0,0-2.207,3.148,6.115,2.452,0,0-.6-2.184,1.97-4.049" transform="translate(-30.746 -14.201)" fill="#fc0"/>
        <path id="패스_4" data-name="패스 4" d="M42.3,23.617s-7.059-.4-8.063,1.645c0,0-2.2,3.238,6.1,2.52,0,0-.6-2.246,1.966-4.165" transform="translate(-15.956 -11.079)" fill="#40a629"/>
        <path id="패스_5" data-name="패스 5" d="M57.277,10.286s-6.891-.384-7.868,1.587c0,0-2.148,3.123,5.95,2.434,0,0-.586-2.17,1.918-4.021" transform="translate(-23.087 -4.817)" fill="#ff7f00"/>
        <path id="패스_6" data-name="패스 6" d="M116.755,18.75a2.172,2.172,0,0,1-1.734.867,2.137,2.137,0,0,1-1.717-.852,3.067,3.067,0,0,1,0-3.893,2.149,2.149,0,0,1,1.717-.838,2.248,2.248,0,0,1,1.734.793,2.843,2.843,0,0,1,.714,1.969,3,3,0,0,1-.714,1.954m16.017-1h-3.806V11.918h-5.927v1.214h.584a1.1,1.1,0,0,1,.88.341,1.077,1.077,0,0,1,.292.7v8.38a7.42,7.42,0,0,1-1.346.256c-.528.056-1.315.084-2.037.084h-4.343V21.491a6.935,6.935,0,0,0,3.156-1.785,4.075,4.075,0,0,0,1.187-2.879,4.281,4.281,0,0,0-1.9-3.522,8.061,8.061,0,0,0-9.18,0,4.283,4.283,0,0,0-1.888,3.522,4.071,4.071,0,0,0,1.185,2.879,6.825,6.825,0,0,0,3.1,1.785V22.9h-5.9v2.42h13.418c1.035,0,2.061-.019,2.754-.06A9.76,9.76,0,0,0,124.8,25v3.191h4.171V20.129h3.806Zm-3.515,13.8H116.379a.488.488,0,0,1-.322-.1.327.327,0,0,1-.116-.267v-4.45h-6.075V27.95h.587a1.2,1.2,0,0,1,.875.292.958.958,0,0,1,.295.706v3.107a1.81,1.81,0,0,0,.585,1.494,2.808,2.808,0,0,0,1.786.473h15.262Z" transform="translate(-50.176 -5.575)" fill="#fff"/>
        <path id="패스_7" data-name="패스 7" d="M159.293,16.789a.971.971,0,0,0-.285-.7,1.123,1.123,0,0,0-.845-.291H157.6V14.58h20.79v2.284h-14.9v5.8a.434.434,0,0,0,.155.364.6.6,0,0,0,.382.122h14.5v2.236H162.542a3.747,3.747,0,0,1-2.473-.669,2.794,2.794,0,0,1-.776-2.222Zm11.635,14.639h9.86v2.4H156.822v-2.4h9.912L166.7,29a.879.879,0,0,0-.268-.668,1,1,0,0,0-.721-.255h-.452V26.887H170.9Z" transform="translate(-73.661 -6.848)" fill="#fff"/>
        <path id="패스_8" data-name="패스 8" d="M211.239,27.087v5.244a.341.341,0,0,0,.112.267.463.463,0,0,0,.31.1h14.158v2.287H209.36a2.646,2.646,0,0,1-1.725-.474,1.845,1.845,0,0,1-.563-1.493V29.3a.971.971,0,0,0-.284-.7,1.131,1.131,0,0,0-.849-.291h-.564V27.087Zm13.427-5.221H227.8v2.428h-9.279v5.178h-4.362V24.295h-10.6V21.866h16.971a3.566,3.566,0,0,0,.55-1.529,22.435,22.435,0,0,0,.1-2.347v-1.36a.479.479,0,0,0-.111-.366.753.753,0,0,0-.453-.1H205.94V13.849h19.151a.316.316,0,0,1,.211.062.221.221,0,0,1,.069.181v3.6a19.324,19.324,0,0,1-.154,2.71,3.357,3.357,0,0,1-.552,1.468" transform="translate(-95.612 -6.505)" fill="#fff"/>
      </g>
    </g>
    <line id="선_1" data-name="선 1" y2="15" transform="translate(470.758 36.261)" fill="none" stroke="#fff" stroke-width="1" opacity="0.4"/>
    <text id="청산도" transform="translate(478.758 51.386)" fill="#fff" font-size="20" font-family="S-CoreDream-3Light, 'S-Core Dream \33 '" font-weight="300"><tspan x="0" y="0">청산도</tspan></text>
  </g>
</svg>
