<svg width="170" height="40" viewBox="0 0 170 40" fill="none" xmlns="http://www.w3.org/2000/svg">
<g clip-path="url(#clip0_21_529)">
<g opacity="0.7">
<path d="M18.8425 30.9886V18.1898C17.8303 15.9949 17.1036 14.5044 17.1036 14.5044C17.1036 14.5044 15.6428 11.1675 12.2837 11.1675C8.576 11.1675 5.60987 18.5828 5.60987 18.5828L0.419141 33.0427C0.419141 33.0427 -1.83882 38.4262 4.1268 39.3457C8.94676 40.0872 17.9008 39.9797 21.9236 38.9749C22.3648 38.8637 22.7912 38.6561 23.1768 38.3706C17.9564 36.7911 18.8425 30.9886 18.8425 30.9886Z" fill="#666666"/>
</g>
<g opacity="0.7">
<path d="M34.5294 26.7398C34.8297 24.0332 35.6195 18.8944 40.0538 16.2545C39.8833 11.9611 39.7201 8.57227 39.7201 8.57227C39.7201 8.57227 39.3494 4.49384 35.6417 3.38154C35.6417 3.38154 27.1141 1.52771 23.0357 3.38154C18.9572 5.23537 18.8423 11.1676 18.8423 11.1676V18.1899C21.2152 23.3473 25.149 32.4088 24.8895 35.2674C24.7708 36.5911 24.0849 37.6997 23.1765 38.3707C23.4806 38.4634 23.8031 38.5413 24.1479 38.6043C30.451 39.7166 36.3462 38.6043 36.3462 38.6043C36.3462 38.6043 37.4733 38.2966 38.5448 37.0545C34.6629 33.7621 34.3292 28.5491 34.5294 26.7398Z" fill="#666666"/>
</g>
<path d="M24.8898 35.2674C25.1493 32.4088 21.2155 23.3473 18.8426 18.1899V30.9888C18.8426 30.9888 17.9564 36.7913 23.1768 38.3707C24.0852 37.6997 24.7711 36.5874 24.8898 35.2674Z" fill="#666666"/>
<g opacity="0.7">
<path d="M52.6971 29.706L55.9783 17.7747C55.4963 17.226 51.7739 13.3552 43.7987 14.8753C42.323 15.1571 41.0884 15.6354 40.0539 16.2546C40.2504 21.1635 40.4618 27.2589 40.4618 30.8183C40.4618 34.0031 39.5237 35.9163 38.5449 37.0546C40.2542 38.5042 42.653 39.5832 46.001 39.8279C49.4417 40.08 52.2781 39.2087 54.4656 37.8146C50.6986 35.4121 52.6971 29.706 52.6971 29.706Z" fill="#666666"/>
</g>
<path d="M40.0538 16.2544C35.6194 18.8942 34.8297 24.0368 34.5293 26.7397C34.3291 28.549 34.6628 33.762 38.5447 37.0544C39.5236 35.9198 40.4616 34.003 40.4616 30.8181C40.4616 27.2587 40.2503 21.1633 40.0538 16.2544Z" fill="#666666"/>
<g opacity="0.7">
<path d="M79.3919 33.4134C78.6504 28.9643 74.572 13.7628 74.572 13.7628C74.572 13.7628 71.6059 3.75215 70.1228 1.89832C70.1228 1.89832 67.8982 -1.06781 64.1905 0.415258C60.4829 1.89832 56.7752 14.8751 56.7752 14.8751L55.9781 17.7745C56.0151 17.8153 56.0337 17.8413 56.0337 17.8413C59.7413 21.5489 60.0083 27.1215 59.7413 30.0765C59.5189 32.5125 57.7095 35.7419 54.4653 37.8144C54.9918 38.1518 55.6295 38.4225 56.4044 38.6042C62.7075 40.0872 74.2012 38.9749 74.2012 38.9749C74.2012 38.9749 80.1335 37.8626 79.3919 33.4134Z" fill="#666666"/>
</g>
<path d="M59.7417 30.0764C60.0087 27.1214 59.7417 21.5488 56.034 17.8412C56.034 17.8412 56.0155 17.8152 55.9784 17.7744L52.6971 29.7057C52.6971 29.7057 50.7024 35.4118 54.4657 37.8143C57.7099 35.7417 59.5192 32.5124 59.7417 30.0764Z" fill="#666666"/>
<path d="M90.7414 11.4862C90.3446 12.58 89.7588 13.5625 88.9839 14.4338C88.209 15.3051 87.2821 15.9725 86.2069 16.4285L84.9463 14.6303C85.8992 14.2224 86.7223 13.6626 87.4119 12.947C88.1015 12.2351 88.6206 11.4565 88.9654 10.6223C89.3102 9.78808 89.4882 8.94644 89.4993 8.10851V5.26844H91.3346V8.10851C91.3346 9.2653 91.1381 10.3924 90.7414 11.4862ZM100.348 18.3157C101.471 18.6271 102.335 19.0832 102.943 19.6875C103.551 20.2919 103.855 21.0038 103.855 21.8306C103.855 22.6574 103.551 23.3618 102.943 23.9551C102.335 24.5446 101.471 25.0043 100.348 25.3269C99.2245 25.6495 97.912 25.8089 96.403 25.8089C94.8939 25.8089 93.5555 25.6495 92.4321 25.3269C91.3086 25.0043 90.4522 24.5483 89.8552 23.9551C89.2583 23.3655 88.9617 22.6574 88.9617 21.8306C88.9617 21.0038 89.2583 20.2919 89.8552 19.6875C90.4522 19.0832 91.3086 18.6271 92.4321 18.3157C93.5555 18.0043 94.8754 17.8522 96.403 17.8522C97.9305 17.8522 99.2282 18.008 100.348 18.3157ZM92.2541 10.4888C92.5952 11.2526 93.0957 11.9422 93.752 12.5614C94.4082 13.1806 95.198 13.6663 96.1212 14.0185L94.8977 15.7945C93.8224 15.3792 92.9103 14.7823 92.1614 14.0037C91.4162 13.2251 90.8489 12.3278 90.467 11.3193C90.0851 10.3072 89.896 9.23935 89.9034 8.11222V5.27215H91.7276V8.11222C91.735 8.93532 91.913 9.72876 92.2541 10.4925V10.4888ZM93.6482 19.8692C92.8807 20.0472 92.2949 20.3067 91.887 20.6404C91.4792 20.9741 91.279 21.3708 91.2864 21.8269C91.279 22.2903 91.4792 22.687 91.887 23.0133C92.2949 23.3396 92.8807 23.588 93.6482 23.7586C94.4157 23.9291 95.3314 24.0144 96.3993 24.0144C97.4671 24.0144 98.3643 23.9291 99.1355 23.7586C99.9067 23.588 100.496 23.3396 100.904 23.0133C101.312 22.687 101.52 22.2903 101.527 21.8269C101.52 21.3708 101.312 20.9741 100.904 20.6404C100.496 20.3067 99.903 20.0509 99.1281 19.8692C98.3532 19.6875 97.4448 19.606 96.3993 19.6134C95.3314 19.606 94.4119 19.6912 93.6482 19.8692ZM98.9724 16.7362H96.8071V4.3304H98.9724V16.7362ZM102.202 11.5492H98.2383V9.63978H102.202V11.5492ZM103.729 17.4222H101.516V3.92627H103.729V17.4222Z" fill="#666666"/>
<path d="M117.878 15.4016H107.686V5.55401H117.878V15.4053V15.4016ZM109.995 13.5292H115.587V7.42267H109.995V13.5292ZM121.582 17.9598C122.69 18.2861 123.547 18.7644 124.144 19.391C124.741 20.0176 125.045 20.774 125.045 21.6564C125.045 22.5388 124.744 23.2766 124.144 23.8958C123.543 24.515 122.69 24.9896 121.582 25.3158C120.473 25.6421 119.15 25.8053 117.618 25.8053C116.087 25.8053 114.775 25.6421 113.666 25.3158C112.557 24.9896 111.705 24.515 111.108 23.8958C110.511 23.2766 110.214 22.5314 110.214 21.6564C110.214 20.7814 110.511 20.0213 111.108 19.391C111.705 18.7644 112.554 18.2861 113.666 17.9598C114.778 17.6336 116.091 17.4704 117.618 17.4704C119.146 17.4704 120.473 17.6336 121.582 17.9598ZM114.871 19.543C114.107 19.7284 113.525 19.9991 113.121 20.355C112.717 20.7146 112.517 21.1447 112.517 21.6527C112.517 22.1606 112.717 22.5611 113.121 22.9133C113.525 23.2655 114.107 23.5325 114.871 23.7141C115.635 23.8958 116.551 23.9885 117.618 23.9885C118.686 23.9885 119.606 23.8958 120.369 23.7141C121.133 23.5325 121.723 23.2618 122.127 22.9133C122.531 22.5611 122.731 22.1421 122.731 21.6527C122.731 21.1633 122.531 20.7146 122.127 20.355C121.723 19.9953 121.141 19.7247 120.377 19.543C119.613 19.3613 118.694 19.2649 117.618 19.2538C116.551 19.2612 115.635 19.3576 114.871 19.543ZM123.48 9.23572H117.277V7.35222H123.48V9.23572ZM123.528 13.6293H117.277V11.6976H123.528V13.6293ZM124.974 16.8475H122.65V3.90039H124.974V16.8475Z" fill="#666666"/>
<path d="M136.056 19.0981C138.422 19.0091 140.665 18.8089 142.786 18.4975L142.956 20.1993C141.429 20.4848 139.842 20.6961 138.192 20.837C136.538 20.9779 134.992 21.0669 133.55 21.1076C132.108 21.1484 130.51 21.1707 128.767 21.1707L128.459 19.239C131.159 19.239 133.691 19.1945 136.056 19.1055V19.0981ZM138.567 6.12128C139.471 6.5662 140.179 7.18538 140.691 7.98253C141.199 8.77967 141.455 9.68063 141.455 10.6928C141.455 11.705 141.199 12.606 140.691 13.4031C140.179 14.2003 139.475 14.8195 138.567 15.2644C137.662 15.7093 136.642 15.9318 135.508 15.9318C134.373 15.9318 133.328 15.7093 132.419 15.2644C131.511 14.8195 130.799 14.2003 130.291 13.4031C129.783 12.606 129.527 11.705 129.527 10.6928C129.527 9.68063 129.783 8.77597 130.291 7.98253C130.799 7.18909 131.511 6.5662 132.419 6.12128C133.328 5.67636 134.358 5.4539 135.508 5.4539C136.657 5.4539 137.662 5.67636 138.567 6.12128ZM133.606 7.87871C133.046 8.13825 132.608 8.51643 132.289 9.00955C131.971 9.50267 131.811 10.0625 131.811 10.6928C131.811 11.3231 131.971 11.8867 132.289 12.3687C132.608 12.8507 133.046 13.2252 133.606 13.4958C134.166 13.7665 134.8 13.9 135.508 13.9C136.216 13.9 136.842 13.7665 137.406 13.4958C137.97 13.2252 138.407 12.8507 138.722 12.3687C139.037 11.8867 139.193 11.3268 139.193 10.6928C139.193 10.0588 139.037 9.50267 138.722 9.00955C138.407 8.51643 137.97 8.13825 137.406 7.87871C136.842 7.61917 136.212 7.4857 135.508 7.4857C134.803 7.4857 134.166 7.61547 133.606 7.87871ZM146.482 25.8905H144.169V3.90039H146.482V25.8868V25.8905Z" fill="#666666"/>
<path d="M170 15.7946H150.008V13.9222H170V15.7946ZM159.63 8.47194C158.836 9.50267 157.765 10.3628 156.419 11.0525C155.073 11.7421 153.59 12.2018 151.966 12.428L151.098 10.6187C152.492 10.4407 153.783 10.0736 154.973 9.5175C156.159 8.96135 157.097 8.29768 157.787 7.51536C158.477 6.73675 158.821 5.91365 158.821 5.04976V4.11914H160.827V5.04976C160.827 6.29925 160.431 7.4375 159.633 8.46823L159.63 8.47194ZM168.005 25.4975H152.025V23.614H168.005V25.4975ZM167.824 19.9286H152.211V18.0674H167.824V19.9286ZM157.765 25.301H155.462V18.7904H157.765V25.301ZM161.128 18.5123H158.84V14.8677H161.128V18.5123ZM162.244 7.50053C162.937 8.28284 163.871 8.95393 165.05 9.51379C166.229 10.0736 167.516 10.4407 168.91 10.6224L168.065 12.4317C166.433 12.2018 164.943 11.7421 163.597 11.0413C162.251 10.3443 161.179 9.48042 160.386 8.44598C159.593 7.41154 159.192 6.28071 159.192 5.04976V4.11914H161.198V5.04976C161.198 5.89882 161.543 6.7145 162.24 7.49682L162.244 7.50053ZM164.579 25.301H162.303V18.7904H164.579V25.301Z" fill="#666666"/>
<path d="M87.0781 31.8564H91.5496V32.7982H88.1719V34.9857H91.227V35.92H88.1719V39.0604H87.0781V31.8564Z" fill="#666666"/>
<path d="M98.6051 37.4252C98.327 37.985 97.9414 38.4114 97.452 38.7117C96.9626 39.0083 96.4027 39.1604 95.7798 39.1604C95.157 39.1604 94.5934 39.012 94.1077 38.7117C93.6183 38.4114 93.2364 37.985 92.9546 37.4252C92.6765 36.8653 92.5356 36.209 92.5356 35.4564C92.5356 34.7037 92.6765 34.0475 92.9546 33.4876C93.2327 32.9278 93.6183 32.5014 94.1077 32.2011C94.5971 31.9007 95.1532 31.7524 95.7798 31.7524C96.4064 31.7524 96.9589 31.9007 97.452 32.2011C97.9414 32.4977 98.327 32.9278 98.6051 33.4876C98.8832 34.0475 99.024 34.7037 99.024 35.4564C99.024 36.209 98.8832 36.8653 98.6051 37.4252ZM97.6633 33.9919C97.478 33.584 97.2221 33.28 96.8959 33.0687C96.5696 32.8573 96.1988 32.7535 95.7798 32.7535C95.3609 32.7535 94.9901 32.8573 94.6676 33.0687C94.3413 33.2763 94.0854 33.584 93.9001 33.9919C93.711 34.3997 93.6183 34.8854 93.6183 35.4564C93.6183 36.0274 93.711 36.5094 93.9001 36.9135C94.0854 37.3176 94.345 37.6254 94.6676 37.8367C94.9938 38.0481 95.3646 38.1556 95.7798 38.1593C96.1988 38.1593 96.5696 38.0481 96.8959 37.8367C97.2221 37.6254 97.478 37.3176 97.6633 36.9135C97.8487 36.5094 97.9414 36.0237 97.9414 35.4564C97.9414 34.8891 97.8487 34.396 97.6633 33.9919Z" fill="#666666"/>
<path d="M100.259 31.8564H102.825C103.374 31.8564 103.833 31.9491 104.204 32.1382C104.575 32.3273 104.857 32.5906 105.046 32.9317C105.235 33.2728 105.327 33.6695 105.327 34.1218C105.327 34.5742 105.235 34.9598 105.049 35.2897C104.864 35.6197 104.582 35.8793 104.208 36.0646C103.833 36.25 103.37 36.3427 102.821 36.3427H100.875V35.3936H102.714C103.062 35.3936 103.348 35.3454 103.57 35.2452C103.792 35.1451 103.956 35.0043 104.059 34.8152C104.163 34.6261 104.215 34.3962 104.219 34.1218C104.219 33.8438 104.163 33.6028 104.059 33.4062C103.956 33.2097 103.792 33.0577 103.563 32.9539C103.336 32.8501 103.051 32.7982 102.706 32.7982H101.349V39.0604H100.255V31.8564H100.259ZM105.598 39.0604H104.349L102.606 35.8125H103.818L105.594 39.0604H105.598Z" fill="#666666"/>
<path d="M106.536 31.8564H111.059V32.7982H107.634V34.9857H110.822V35.92H107.634V38.1187H111.097V39.0604H106.54V31.8564H106.536Z" fill="#666666"/>
<path d="M116.08 33.1838C115.954 33.0244 115.779 32.9057 115.564 32.8242C115.349 32.7463 115.105 32.7055 114.827 32.7055C114.548 32.7055 114.285 32.75 114.066 32.839C113.848 32.928 113.677 33.054 113.558 33.2135C113.44 33.3729 113.381 33.5583 113.381 33.7622C113.381 34.0662 113.507 34.3035 113.755 34.4666C114.003 34.6298 114.319 34.7558 114.693 34.8485L115.383 35.0339C115.983 35.1822 116.48 35.4121 116.873 35.7198C117.266 36.0276 117.463 36.4762 117.463 37.0694C117.463 37.4773 117.359 37.8406 117.147 38.1595C116.936 38.4783 116.632 38.7305 116.228 38.9084C115.824 39.0864 115.346 39.1754 114.793 39.1754C114.241 39.1754 113.792 39.0901 113.399 38.9158C113.006 38.7416 112.698 38.5006 112.472 38.1854C112.25 37.8703 112.124 37.4958 112.098 37.062H113.191C113.21 37.3104 113.295 37.5218 113.44 37.696C113.584 37.8703 113.777 38 114.011 38.0853C114.244 38.1706 114.504 38.2114 114.789 38.2114C115.093 38.2114 115.368 38.1632 115.609 38.0668C115.85 37.9704 116.039 37.8332 116.176 37.6589C116.313 37.4847 116.38 37.2808 116.38 37.0472C116.38 36.847 116.324 36.6801 116.209 36.5392C116.098 36.3983 115.942 36.2871 115.746 36.2018C115.549 36.1166 115.308 36.035 115.019 35.9571L114.163 35.7347C113.558 35.5678 113.095 35.3305 112.772 35.0228C112.45 34.7151 112.29 34.3146 112.294 33.8252C112.294 33.4174 112.405 33.0577 112.624 32.7426C112.843 32.4274 113.151 32.1864 113.54 32.0122C113.929 31.8416 114.367 31.7563 114.852 31.7563C115.338 31.7563 115.765 31.8416 116.143 32.0122C116.521 32.1827 116.818 32.42 117.033 32.724C117.248 33.0281 117.359 33.3692 117.363 33.7511H116.302C116.28 33.5323 116.202 33.3432 116.076 33.1838H116.08Z" fill="#666666"/>
<path d="M118.286 31.8564H123.873V32.7982H121.634V39.0604H120.536V32.7982H118.289V31.8564H118.286Z" fill="#666666"/>
<path d="M127.473 31.8564H131.945V32.7982H128.567V34.9857H131.622V35.92H128.567V39.0604H127.473V31.8564Z" fill="#666666"/>
<path d="M139 37.4252C138.722 37.985 138.336 38.4114 137.847 38.7117C137.358 39.0083 136.798 39.1604 136.175 39.1604C135.552 39.1604 134.988 39.012 134.503 38.7117C134.013 38.4114 133.631 37.985 133.35 37.4252C133.072 36.8653 132.931 36.209 132.931 35.4564C132.931 34.7037 133.072 34.0475 133.35 33.4876C133.628 32.9278 134.013 32.5014 134.503 32.2011C134.992 31.9007 135.548 31.7524 136.175 31.7524C136.801 31.7524 137.354 31.9007 137.847 32.2011C138.336 32.4977 138.722 32.9278 139 33.4876C139.278 34.0475 139.419 34.7037 139.419 35.4564C139.419 36.209 139.278 36.8653 139 37.4252ZM138.058 33.9919C137.873 33.584 137.617 33.28 137.291 33.0687C136.965 32.8573 136.594 32.7535 136.175 32.7535C135.756 32.7535 135.385 32.8573 135.063 33.0687C134.736 33.2763 134.48 33.584 134.295 33.9919C134.106 34.3997 134.013 34.8854 134.013 35.4564C134.013 36.0274 134.106 36.5094 134.295 36.9135C134.48 37.3176 134.74 37.6254 135.063 37.8367C135.389 38.0481 135.76 38.1556 136.175 38.1593C136.594 38.1593 136.965 38.0481 137.291 37.8367C137.617 37.6254 137.873 37.3176 138.058 36.9135C138.244 36.5094 138.336 36.0237 138.336 35.4564C138.336 34.8891 138.244 34.396 138.058 33.9919Z" fill="#666666"/>
<path d="M140.654 31.8564H143.219C143.768 31.8564 144.228 31.9491 144.599 32.1382C144.969 32.3273 145.251 32.5906 145.44 32.9317C145.629 33.2728 145.722 33.6695 145.722 34.1218C145.722 34.5742 145.629 34.9598 145.444 35.2897C145.259 35.6197 144.977 35.8793 144.602 36.0646C144.228 36.25 143.764 36.3427 143.216 36.3427H141.269V35.3936H143.108C143.457 35.3936 143.742 35.3454 143.965 35.2452C144.187 35.1451 144.35 35.0043 144.454 34.8152C144.558 34.6261 144.61 34.3962 144.613 34.1218C144.613 33.8438 144.558 33.6028 144.454 33.4062C144.35 33.2097 144.187 33.0577 143.957 32.9539C143.731 32.8501 143.445 32.7982 143.101 32.7982H141.744V39.0604H140.65V31.8564H140.654ZM145.993 39.0604H144.743L143.001 35.8125H144.213L145.989 39.0604H145.993Z" fill="#666666"/>
<path d="M149.419 31.8564H150.513V38.1187H153.772V39.0604H149.419V31.8564Z" fill="#666666"/>
<path d="M155.989 39.0604H154.895V31.8564H155.989V39.0604Z" fill="#666666"/>
<path d="M157.457 31.8564H161.928V32.7982H158.551V34.9857H161.606V35.92H158.551V39.0604H157.457V31.8564Z" fill="#666666"/>
<path d="M163.148 31.8564H167.672V32.7982H164.246V34.9857H167.434V35.92H164.246V38.1187H167.709V39.0604H163.152V31.8564H163.148Z" fill="#666666"/>
</g>
<defs>
<clipPath id="clip0_21_529">
<rect width="170" height="39.8722" fill="white"/>
</clipPath>
</defs>
</svg>
