<svg xmlns="http://www.w3.org/2000/svg" width="190" height="35.649" viewBox="0 0 190 35.649">
  <g id="logo_w" transform="translate(-28.275 -29.116)">
    <g id="그룹_1" data-name="그룹 1" transform="translate(83.553 30.02)">
      <path id="패스_1" data-name="패스 1" d="M198.994,41.809a1.7,1.7,0,1,1,0,3.4H181.253a1.7,1.7,0,1,1,0-3.4H187.8V40.441H183.33c-2.007,0-2.94-.614-2.94-2.53V35.358c0-1.894.936-2.508,2.94-2.508h14.8a1.465,1.465,0,0,1,1.664,1.572c0,.958-.57,1.528-1.664,1.528H185.4c-.3,0-.457.113-.457.388V37c0,.274.161.41.457.41h12.816c1.093,0,1.686.57,1.686,1.507a1.484,1.484,0,0,1-1.686,1.528h-5.77v1.368h6.545ZM195.78,46.3c3.009,0,4.377,1.572,4.377,3.876s-1.368,3.876-4.377,3.876H184.47c-3.009,0-4.377-1.572-4.377-3.876s1.368-3.876,4.377-3.876h11.31Zm-1.3,4.673c.753,0,1.049-.318,1.049-.8s-.3-.8-1.049-.8h-8.71c-.753,0-1.049.318-1.049.8s.3.8,1.049.8Z" transform="translate(-179.45 -32.389)" fill="#fff"/>
      <path id="패스_2" data-name="패스 2" d="M261.6,51.525a1.186,1.186,0,0,1,1.276,1.3A1.16,1.16,0,0,1,261.6,54.1H245.34a2.655,2.655,0,0,1-2.874-2.827V51.09c0-1.55.889-2.669,2.874-2.669h12.2v-.457c0-.2-.113-.344-.41-.344H243.995a1.238,1.238,0,0,1-1.3-1.276,1.2,1.2,0,0,1,1.3-1.276h6.18v-1h-6.681c-1.093,0-1.664-.5-1.664-1.459s.548-1.481,1.664-1.481H261.51c1.119,0,1.664.548,1.664,1.481s-.57,1.459-1.664,1.459h-6.681v1h4.856c1.938,0,2.552.731,2.552,2.121v3.536H247.849c-.318,0-.479.161-.479.41,0,.227.161.388.479.388H261.6ZM245.772,40.168c-2.53,0-2.987-.706-2.987-3.17v-.8c0-2.461.457-3.17,2.987-3.17h13.452c2.53,0,2.987.706,2.987,3.17v3.967Zm1.55-3.349c0,.227.044.366.457.366h9.9v-.823c0-.183-.022-.344-.457-.344h-9.441c-.431,0-.457.161-.457.344Z" transform="translate(-219.02 -32.503)" fill="#fff"/>
      <path id="패스_3" data-name="패스 3" d="M323.607,50.019a1.869,1.869,0,1,1,0,3.737H306.1a1.869,1.869,0,1,1,0-3.737h6.432V46.1h-3.945c-2.735,0-3.262-.867-3.262-3.466v-7.39c0-1.481,1.141-2.029,2.348-2.029a2.111,2.111,0,0,1,2.326,2.073v.936h9.69v-.98c0-1.481,1.119-2.029,2.326-2.029s2.326.57,2.326,2.029V46.092h-7.16v3.923h6.432Zm-13.613-8.278c0,.457.161.684.706.684h8.984V39.755h-9.69Z" transform="translate(-258.572 -32.618)" fill="#fff"/>
      <path id="패스_4" data-name="패스 4" d="M385.961,48.992a1.869,1.869,0,1,1,0,3.737H368.45a1.869,1.869,0,1,1,0-3.737h6.432V45.617h-1.21a5.413,5.413,0,0,1-5.7-5.587,4.49,4.49,0,0,1,.614-2.212h-.274a1.746,1.746,0,0,1-1.781-1.8,1.675,1.675,0,0,1,1.755-1.755h6.406v-.344a2.516,2.516,0,0,1,5.017,0v.344h6.384a1.673,1.673,0,0,1,1.755,1.755,1.725,1.725,0,0,1-1.755,1.8h-.3a4.49,4.49,0,0,1,.614,2.212,5.415,5.415,0,0,1-5.7,5.587h-1.185v3.375h6.432Zm-11.2-6.816h4.856a2.092,2.092,0,0,0,2.234-2.234,2.129,2.129,0,0,0-2.282-2.234h-4.764a2.119,2.119,0,0,0-2.282,2.234,2.082,2.082,0,0,0,2.234,2.234Z" transform="translate(-298.123 -31.59)" fill="#fff"/>
      <path id="패스_5" data-name="패스 5" d="M430.54,44.869a1.852,1.852,0,0,1-.706-3.6c1.529-.753,2.348-2.165,2.4-5.518l.022-1.276a2.122,2.122,0,0,1,4.242.044v1.071a16.083,16.083,0,0,1-.135,2.143c2.918.867,4.106,2.874,3.763,6.819h-4.037c.274-1.777-.022-2.8-.731-3.262-1.071,2.282-2.827,3.58-4.812,3.58Zm17.789,5.108a1.687,1.687,0,0,1,1.916,1.755,1.713,1.713,0,0,1-1.916,1.777H433.6c-2.552,0-3.24-.889-3.24-3.327V47.6A2.133,2.133,0,0,1,432.7,45.37a2.1,2.1,0,0,1,2.282,2.234v1.825c0,.479.113.548.592.548h12.747ZM440.12,38.8a1.8,1.8,0,0,1-1.986-1.868,1.829,1.829,0,0,1,1.986-1.916h.731v-1a1.938,1.938,0,0,1,3.876,0v13.8h-3.876V38.806h-.731Zm9.62,9.01h-3.989V34.064a2,2,0,0,1,3.993,0V47.812Z" transform="translate(-337.484 -31.914)" fill="#fff"/>
      <path id="패스_6" data-name="패스 6" d="M505.108,48.792a1.916,1.916,0,0,1,0,3.81h-8.553c-2.827,0-3.375-.706-3.375-3.419V36.3c0-2.713.548-3.4,3.375-3.4h7.273a1.7,1.7,0,0,1,1.711,1.916,1.725,1.725,0,0,1-1.711,1.938h-5.565c-.41,0-.592.135-.592.662v3.327h4.812a1.882,1.882,0,0,1,0,3.763H497.67v3.627c0,.523.183.662.592.662H505.1Zm8.074-14.436V53.509h-4.56V44.455h-1.481a1.951,1.951,0,1,1,0-3.9h1.481v-6.2a2.282,2.282,0,0,1,4.563,0Z" transform="translate(-378.463 -31.914)" fill="#fff"/>
    </g>
    <g id="그룹_2" data-name="그룹 2" transform="translate(84.555 55.097)">
      <path id="패스_7" data-name="패스 7" d="M182.19,109.383l3.1-8.483h1.112l3.1,8.483H188.4l-2.519-7.112h-.069l-2.519,7.112Zm5.836-3.313V107h-4.348v-.925Z" transform="translate(-182.19 -100.633)" fill="#fff"/>
      <path id="패스_8" data-name="패스 8" d="M206.009,112.916H205v-6.362h.973v.995h.08a1.778,1.778,0,0,1,.7-.793,2.192,2.192,0,0,1,1.163-.285,2.333,2.333,0,0,1,1.137.263,1.768,1.768,0,0,1,.742.8,3.03,3.03,0,0,1,.263,1.331v4.041h-1.009v-3.971a1.928,1.928,0,0,0-.168-.841,1.2,1.2,0,0,0-.494-.541,1.53,1.53,0,0,0-.775-.186,1.739,1.739,0,0,0-.83.2,1.368,1.368,0,0,0-.567.592,2,2,0,0,0-.2.932v3.817Z" transform="translate(-196.659 -104.166)" fill="#fff"/>
      <path id="패스_9" data-name="패스 9" d="M223.061,101.413a.738.738,0,0,1-.256-.241.61.61,0,0,1-.1-.333.632.632,0,0,1,.1-.336.687.687,0,0,1,.256-.245.753.753,0,0,1,.706,0,.678.678,0,0,1,.263.245.613.613,0,0,1,.1.336.6.6,0,0,1-.1.333.761.761,0,0,1-.263.241.7.7,0,0,1-.706,0Zm-.15,1.148h1.009v6.362h-1.009Z" transform="translate(-207.894 -100.17)" fill="#fff"/>
      <path id="패스_10" data-name="패스 10" d="M230.4,106.564h.973v.995h.08a1.607,1.607,0,0,1,.644-.793,1.931,1.931,0,0,1,1.068-.285,2.046,2.046,0,0,1,.739.124,1.562,1.562,0,0,1,.567.366,1.862,1.862,0,0,1,.391.589h.069a1.921,1.921,0,0,1,.439-.574,1.9,1.9,0,0,1,.647-.377,2.555,2.555,0,0,1,.823-.128,2.069,2.069,0,0,1,1.017.241,1.681,1.681,0,0,1,.684.731,2.707,2.707,0,0,1,.245,1.218v4.253h-1.009v-4.242a1.261,1.261,0,0,0-.362-.98,1.342,1.342,0,0,0-.925-.318,1.465,1.465,0,0,0-.746.183,1.253,1.253,0,0,0-.479.5,1.606,1.606,0,0,0-.172.728v4.136h-1.02v-4.348a1.257,1.257,0,0,0-.154-.625,1.015,1.015,0,0,0-.439-.421,1.4,1.4,0,0,0-.651-.146,1.364,1.364,0,0,0-.706.2,1.458,1.458,0,0,0-.523.559,1.667,1.667,0,0,0-.2.812v3.971H230.39v-6.362Z" transform="translate(-212.765 -104.173)" fill="#fff"/>
      <path id="패스_11" data-name="패스 11" d="M260.632,110.028c-.11.007-.278.018-.5.037s-.453.033-.68.048a2.252,2.252,0,0,0-1.1.311.953.953,0,0,0-.219,1.324,1.086,1.086,0,0,0,.472.344,1.823,1.823,0,0,0,.687.11,1.989,1.989,0,0,0,.947-.216,1.521,1.521,0,0,0,.611-.574,1.5,1.5,0,0,0,.212-.768v-1.978a1.424,1.424,0,0,0-.157-.695.986.986,0,0,0-.483-.435,1.923,1.923,0,0,0-.8-.146,1.745,1.745,0,0,0-.951.238,1.071,1.071,0,0,0-.479.618h-1.053a1.7,1.7,0,0,1,.4-.907,2.157,2.157,0,0,1,.889-.611,3.424,3.424,0,0,1,1.243-.216,3.649,3.649,0,0,1,1.082.165,1.817,1.817,0,0,1,.918.665,2.3,2.3,0,0,1,.388,1.419v4.194h-.995v-.867h-.048a1.771,1.771,0,0,1-.669.706,2.265,2.265,0,0,1-1.229.314,2.626,2.626,0,0,1-1.1-.238,1.839,1.839,0,0,1-.779-.673,1.89,1.89,0,0,1-.285-1.046,1.492,1.492,0,0,1,.676-1.389,3.857,3.857,0,0,1,1.715-.483c.183-.015.395-.029.633-.044s.472-.026.7-.037l.457-.011.011.819c-.227.015-.395.026-.508.037Z" transform="translate(-229.614 -104.192)" fill="#fff"/>
      <path id="패스_12" data-name="패스 12" d="M276.336,109.383H275.33V100.9h1.006Z" transform="translate(-241.273 -100.633)" fill="#fff"/>
      <path id="패스_13" data-name="패스 13" d="M291.06,100.91h2.881a3.371,3.371,0,0,1,1.613.351,2.241,2.241,0,0,1,.965.958,2.932,2.932,0,0,1,.314,1.386,2.972,2.972,0,0,1-.314,1.382,2.317,2.317,0,0,1-.965.965,3.283,3.283,0,0,1-1.6.358H291.89v-.936H293.9a2.28,2.28,0,0,0,1.079-.227,1.356,1.356,0,0,0,.611-.622,2.24,2.24,0,0,0,0-1.839,1.35,1.35,0,0,0-.614-.614,2.3,2.3,0,0,0-1.086-.223h-1.781v7.543H291.06Z" transform="translate(-251.251 -100.639)" fill="#fff"/>
      <path id="패스_14" data-name="패스 14" d="M310.54,106.532h.973v.973h.069a1.5,1.5,0,0,1,.625-.775,1.851,1.851,0,0,1,1.016-.3q.472.016.527.022v1.02c-.066-.015-.157-.033-.271-.048a2.652,2.652,0,0,0-.34-.022,1.706,1.706,0,0,0-.812.194,1.459,1.459,0,0,0-.57.534,1.426,1.426,0,0,0-.212.761V112.9H310.54v-6.362Z" transform="translate(-263.608 -104.141)" fill="#fff"/>
      <path id="패스_15" data-name="패스 15" d="M322,112.645a2.745,2.745,0,0,1-1.02-1.152,3.872,3.872,0,0,1-.362-1.719,3.932,3.932,0,0,1,.362-1.73A2.733,2.733,0,0,1,322,106.89a2.812,2.812,0,0,1,1.521-.41,2.765,2.765,0,0,1,1.51.41,2.717,2.717,0,0,1,1.013,1.155,3.96,3.96,0,0,1,.358,1.73,3.9,3.9,0,0,1-.358,1.719,2.729,2.729,0,0,1-1.013,1.152,2.782,2.782,0,0,1-1.51.41A2.82,2.82,0,0,1,322,112.645Zm2.56-.8a1.908,1.908,0,0,0,.629-.867,3.615,3.615,0,0,0,0-2.4,1.95,1.95,0,0,0-.629-.874,1.641,1.641,0,0,0-1.038-.329,1.68,1.68,0,0,0-1.049.329,1.944,1.944,0,0,0-.636.874,3.426,3.426,0,0,0-.212,1.2,3.479,3.479,0,0,0,.212,1.2,1.9,1.9,0,0,0,.636.867,1.691,1.691,0,0,0,1.049.322A1.651,1.651,0,0,0,324.562,111.84Z" transform="translate(-270.002 -104.173)" fill="#fff"/>
      <path id="패스_16" data-name="패스 16" d="M341.9,104.909H338.58v-.845H341.9Zm-1.335-2.369V108.6a1.288,1.288,0,0,0,.11.589.6.6,0,0,0,.293.285,1.09,1.09,0,0,0,.428.077c.069,0,.143,0,.219-.007s.15-.007.227-.007l.154-.011v.936a4.608,4.608,0,0,1-.7.048,1.977,1.977,0,0,1-.845-.186,1.549,1.549,0,0,1-.9-1.463V102.54Z" transform="translate(-281.395 -101.673)" fill="#fff"/>
      <path id="패스_17" data-name="패스 17" d="M351.6,112.649a2.7,2.7,0,0,1-1.035-1.141,3.839,3.839,0,0,1-.362-1.711,3.954,3.954,0,0,1,.362-1.73,2.764,2.764,0,0,1,1.013-1.17,2.726,2.726,0,0,1,1.507-.417,2.929,2.929,0,0,1,1.346.318,2.372,2.372,0,0,1,1.009,1.031,3.839,3.839,0,0,1,.388,1.828v.421H350.9v-.856h3.9a2.077,2.077,0,0,0-.212-.951,1.577,1.577,0,0,0-.6-.662,1.7,1.7,0,0,0-.907-.241,1.76,1.76,0,0,0-.984.274,1.858,1.858,0,0,0-.655.739,2.247,2.247,0,0,0-.238.991v.574a2.618,2.618,0,0,0,.252,1.2,1.785,1.785,0,0,0,.691.757,1.989,1.989,0,0,0,1.024.256,2.034,2.034,0,0,0,.655-.1,1.616,1.616,0,0,0,.494-.26,1.332,1.332,0,0,0,.325-.366h1.079a2.148,2.148,0,0,1-.5.852,2.366,2.366,0,0,1-.878.567,3.316,3.316,0,0,1-1.17.2,3,3,0,0,1-1.58-.406Z" transform="translate(-288.766 -104.173)" fill="#fff"/>
      <path id="패스_18" data-name="패스 18" d="M369.7,112.638a2.7,2.7,0,0,1-1.009-1.163,3.948,3.948,0,0,1-.351-1.7,3.906,3.906,0,0,1,.362-1.711,2.781,2.781,0,0,1,1.016-1.166,2.731,2.731,0,0,1,1.5-.417,2.933,2.933,0,0,1,1.218.245,2.2,2.2,0,0,1,1.313,1.759h-1.009a1.468,1.468,0,0,0-.274-.556,1.437,1.437,0,0,0-.508-.406,1.612,1.612,0,0,0-.717-.154,1.719,1.719,0,0,0-.991.293,1.929,1.929,0,0,0-.669.83,3,3,0,0,0-.241,1.243,3.237,3.237,0,0,0,.234,1.272,1.955,1.955,0,0,0,.662.845,1.716,1.716,0,0,0,1,.3,1.666,1.666,0,0,0,.684-.135,1.463,1.463,0,0,0,.519-.377,1.424,1.424,0,0,0,.3-.589h1.009a2.281,2.281,0,0,1-.41,1.031,2.231,2.231,0,0,1-.87.713,3.052,3.052,0,0,1-2.772-.157Z" transform="translate(-300.273 -104.173)" fill="#fff"/>
      <path id="패스_19" data-name="패스 19" d="M388.366,104.909H385.05v-.845h3.317Zm-1.335-2.369V108.6a1.289,1.289,0,0,0,.11.589.6.6,0,0,0,.293.285,1.09,1.09,0,0,0,.428.077c.069,0,.143,0,.219-.007s.15-.007.227-.007l.154-.011v.936a4.61,4.61,0,0,1-.7.048,1.977,1.977,0,0,1-.845-.186,1.549,1.549,0,0,1-.9-1.463V102.54Z" transform="translate(-310.873 -101.673)" fill="#fff"/>
      <path id="패스_20" data-name="패스 20" d="M397.481,101.413a.738.738,0,0,1-.256-.241.61.61,0,0,1-.1-.333.6.6,0,0,1,.1-.336.687.687,0,0,1,.256-.245.7.7,0,0,1,.355-.088.725.725,0,0,1,.351.088.678.678,0,0,1,.263.245.613.613,0,0,1,.1.336.6.6,0,0,1-.1.333.762.762,0,0,1-.263.241.7.7,0,0,1-.351.1A.716.716,0,0,1,397.481,101.413Zm-.15,1.148h1.006v6.362h-1.006Z" transform="translate(-318.536 -100.17)" fill="#fff"/>
      <path id="패스_21" data-name="패스 21" d="M405.382,112.645a2.745,2.745,0,0,1-1.02-1.152,3.872,3.872,0,0,1-.362-1.719,3.932,3.932,0,0,1,.362-1.73,2.733,2.733,0,0,1,1.02-1.155,2.812,2.812,0,0,1,1.521-.41,2.765,2.765,0,0,1,1.51.41,2.718,2.718,0,0,1,1.013,1.155,3.96,3.96,0,0,1,.358,1.73,3.9,3.9,0,0,1-.358,1.719,2.73,2.73,0,0,1-1.013,1.152,2.782,2.782,0,0,1-1.51.41A2.821,2.821,0,0,1,405.382,112.645Zm2.56-.8a1.908,1.908,0,0,0,.629-.867,3.615,3.615,0,0,0,0-2.4,1.95,1.95,0,0,0-.629-.874,1.64,1.64,0,0,0-1.038-.329,1.68,1.68,0,0,0-1.049.329,1.944,1.944,0,0,0-.636.874,3.428,3.428,0,0,0-.212,1.2,3.482,3.482,0,0,0,.212,1.2,1.9,1.9,0,0,0,.636.867,1.691,1.691,0,0,0,1.049.322A1.651,1.651,0,0,0,407.942,111.84Z" transform="translate(-322.894 -104.173)" fill="#fff"/>
      <path id="패스_22" data-name="패스 22" d="M424.445,112.916H423.44v-6.362h.973v.995h.08a1.785,1.785,0,0,1,.7-.793,2.193,2.193,0,0,1,1.163-.285,2.333,2.333,0,0,1,1.137.263,1.768,1.768,0,0,1,.742.8,3.031,3.031,0,0,1,.263,1.331v4.041H427.5v-3.971a1.983,1.983,0,0,0-.168-.841,1.185,1.185,0,0,0-.494-.541,1.531,1.531,0,0,0-.775-.186,1.764,1.764,0,0,0-.834.2,1.367,1.367,0,0,0-.567.592,2.005,2.005,0,0,0-.2.932v3.817Z" transform="translate(-335.226 -104.166)" fill="#fff"/>
      <path id="패스_23" data-name="패스 23" d="M455.043,102.41a2.238,2.238,0,0,0-.841-.618,2.709,2.709,0,0,0-1.064-.212,2.569,2.569,0,0,0-1.4.391,2.641,2.641,0,0,0-.976,1.155,4.279,4.279,0,0,0-.358,1.828,4.216,4.216,0,0,0,.358,1.817,2.683,2.683,0,0,0,.976,1.155,2.578,2.578,0,0,0,1.4.4,2.861,2.861,0,0,0,1.064-.212,2.217,2.217,0,0,0,.837-.611,2.184,2.184,0,0,0,.464-.965h1.053a3.349,3.349,0,0,1-.633,1.477,3.162,3.162,0,0,1-1.2.965,3.723,3.723,0,0,1-1.583.333,3.572,3.572,0,0,1-1.938-.534,3.614,3.614,0,0,1-1.331-1.521,5.779,5.779,0,0,1,0-4.607,3.506,3.506,0,0,1,3.269-2.055,3.777,3.777,0,0,1,1.583.329,3.06,3.06,0,0,1,1.2.962,3.4,3.4,0,0,1,.633,1.5H455.5a2.112,2.112,0,0,0-.464-.976Z" transform="translate(-351.687 -100.443)" fill="#fff"/>
      <path id="패스_24" data-name="패스 24" d="M473.247,112.649a2.7,2.7,0,0,1-1.035-1.141,3.84,3.84,0,0,1-.362-1.711,3.954,3.954,0,0,1,.362-1.73,2.765,2.765,0,0,1,1.013-1.17,2.726,2.726,0,0,1,1.507-.417,2.929,2.929,0,0,1,1.346.318,2.373,2.373,0,0,1,1.009,1.031,3.84,3.84,0,0,1,.388,1.828v.421h-4.922v-.856h3.9a2.077,2.077,0,0,0-.212-.951,1.576,1.576,0,0,0-.6-.662,1.7,1.7,0,0,0-.907-.241,1.76,1.76,0,0,0-.984.274,1.858,1.858,0,0,0-.655.739,2.247,2.247,0,0,0-.238.991v.574a2.618,2.618,0,0,0,.252,1.2,1.784,1.784,0,0,0,.691.757,1.989,1.989,0,0,0,1.024.256,2.034,2.034,0,0,0,.654-.1,1.615,1.615,0,0,0,.494-.26,1.334,1.334,0,0,0,.325-.366h1.079a2.147,2.147,0,0,1-.5.852,2.365,2.365,0,0,1-.878.567,3.315,3.315,0,0,1-1.17.2,3,3,0,0,1-1.58-.406Z" transform="translate(-365.934 -104.173)" fill="#fff"/>
      <path id="패스_25" data-name="패스 25" d="M491.826,112.916H490.82v-6.362h.973v.995h.08a1.785,1.785,0,0,1,.7-.793,2.192,2.192,0,0,1,1.163-.285,2.333,2.333,0,0,1,1.137.263,1.768,1.768,0,0,1,.742.8,3.031,3.031,0,0,1,.263,1.331v4.041h-1.006v-3.971a1.983,1.983,0,0,0-.168-.841,1.185,1.185,0,0,0-.494-.541,1.531,1.531,0,0,0-.775-.186,1.764,1.764,0,0,0-.834.2,1.367,1.367,0,0,0-.567.592,2,2,0,0,0-.2.932v3.817Z" transform="translate(-377.968 -104.166)" fill="#fff"/>
      <path id="패스_26" data-name="패스 26" d="M510.916,104.909H507.6v-.845h3.316Zm-1.335-2.369V108.6a1.289,1.289,0,0,0,.11.589.6.6,0,0,0,.293.285,1.09,1.09,0,0,0,.428.077c.069,0,.143,0,.219-.007s.15-.007.227-.007l.154-.011v.936a4.608,4.608,0,0,1-.7.048,1.977,1.977,0,0,1-.845-.186,1.549,1.549,0,0,1-.9-1.463V102.54Z" transform="translate(-388.612 -101.673)" fill="#fff"/>
      <path id="패스_27" data-name="패스 27" d="M520.617,112.649a2.7,2.7,0,0,1-1.035-1.141,3.839,3.839,0,0,1-.362-1.711,3.954,3.954,0,0,1,.362-1.73,2.764,2.764,0,0,1,1.013-1.17,2.726,2.726,0,0,1,1.506-.417,2.929,2.929,0,0,1,1.346.318,2.373,2.373,0,0,1,1.009,1.031,3.839,3.839,0,0,1,.388,1.828v.421h-4.922v-.856h3.9a2.077,2.077,0,0,0-.212-.951,1.576,1.576,0,0,0-.6-.662,1.7,1.7,0,0,0-.907-.241,1.76,1.76,0,0,0-.984.274,1.858,1.858,0,0,0-.654.739,2.248,2.248,0,0,0-.238.991v.574a2.618,2.618,0,0,0,.252,1.2,1.785,1.785,0,0,0,.691.757,1.989,1.989,0,0,0,1.024.256,2.034,2.034,0,0,0,.654-.1,1.614,1.614,0,0,0,.494-.26,1.332,1.332,0,0,0,.325-.366h1.079a2.148,2.148,0,0,1-.5.852,2.365,2.365,0,0,1-.878.567,3.315,3.315,0,0,1-1.17.2,3,3,0,0,1-1.58-.406Z" transform="translate(-395.983 -104.173)" fill="#fff"/>
      <path id="패스_28" data-name="패스 28" d="M538.18,106.532h.973v.973h.07a1.5,1.5,0,0,1,.625-.775,1.851,1.851,0,0,1,1.017-.3q.472.016.527.022v1.02c-.066-.015-.157-.033-.271-.048a2.654,2.654,0,0,0-.34-.022,1.706,1.706,0,0,0-.812.194,1.458,1.458,0,0,0-.57.534,1.427,1.427,0,0,0-.212.761V112.9H538.18v-6.362Z" transform="translate(-408.01 -104.141)" fill="#fff"/>
    </g>
    <g id="그룹_3" data-name="그룹 3" transform="translate(28.275 29.116)">
      <path id="패스_29" data-name="패스 29" d="M57.756,64.765a.923.923,0,0,1-.874-.64c-1.521-4.863-5.942-4.772-8.07-4.728-.172,0-.325.007-.457.007a13.43,13.43,0,0,0-2.892.431,33.232,33.232,0,0,1-7.233.9,10.278,10.278,0,0,1-8.458-4.86c-1.554-2.391-1.923-5.013-.991-7.01,1.357-2.9,3.956-3,6.253-3.086a6.915,6.915,0,0,0,3.81-.823c3.207-2.333,3.96-11.145,3.978-14.345a.915.915,0,0,1,1.682-.494l4.136,6.4c2.234-1.3,5.584-5.408,6.79-7.028a.916.916,0,0,1,1.649.559L56.714,54.6c2.081,2.72,10.286,2.344,13.657.435A3.736,3.736,0,0,0,72.3,50.464c-.011-.033-.022-.073-.029-.106L69.892,40c-3.43,5.284-10.516,4.059-10.6,4.044a.914.914,0,1,1,.329-1.8c.318.059,7.628,1.287,9.69-5.32a.914.914,0,0,1,1.762.069l2.962,12.9a5.586,5.586,0,0,1-2.764,6.735c-3.876,2.19-13.635,2.973-16.253-1.272a.905.905,0,0,1-.135-.494l.333-22.159c-1.77,2.121-4.538,5.119-6.607,5.832a.914.914,0,0,1-1.068-.369l-3.024-4.68c-.314,3.883-1.327,10.567-4.589,12.941A8.359,8.359,0,0,1,35.115,47.6c-2.344.088-3.825.234-4.666,2.033-.665,1.422-.34,3.379.87,5.24A8.459,8.459,0,0,0,38.208,58.9a31.722,31.722,0,0,0,6.874-.852,14.9,14.9,0,0,1,3.284-.475c.121,0,.263,0,.421-.007,2.168-.044,7.924-.165,9.851,6.011a.913.913,0,0,1-.6,1.145.89.89,0,0,1-.274.04Z" transform="translate(-28.275 -29.116)" fill="#fff"/>
      <circle id="타원_1" data-name="타원 1" cx="0.984" cy="0.984" r="0.984" transform="translate(18.701 17.078)" fill="#fff"/>
      <circle id="타원_2" data-name="타원 2" cx="0.984" cy="0.984" r="0.984" transform="translate(32.03 18.058)" fill="#fff"/>
      <circle id="타원_3" data-name="타원 3" cx="0.984" cy="0.984" r="0.984" transform="translate(14.88 16.467)" fill="#fff"/>
      <circle id="타원_4" data-name="타원 4" cx="0.984" cy="0.984" r="0.984" transform="translate(36.597 17.447)" fill="#fff"/>
      <path id="패스_30" data-name="패스 30" d="M45.471,89.851c0,1.876-1.565,2.764-3.572,2.764a3.525,3.525,0,0,1-3.638-3.4,2.877,2.877,0,0,1,3.159-3.079,4.188,4.188,0,0,1,4.051,3.715Z" transform="translate(-34.609 -65.289)" fill="#fff"/>
      <path id="패스_31" data-name="패스 31" d="M126.486,90.355a2.058,2.058,0,0,1-2.084,1.814c-1.371,0-2.092-.83-2.092-1.474s.5-1.075,1.872-1.075S126.486,89.711,126.486,90.355Z" transform="translate(-87.926 -67.496)" fill="#fff"/>
    </g>
  </g>
</svg>
