<?xml version="1.0" encoding="UTF-8"?>
<svg id="Layer_1" data-name="Layer 1" xmlns="http://www.w3.org/2000/svg" version="1.1" viewBox="0 0 192.63 189.95">
  <defs>
    <style>
      .cls-1 {
        fill: #fff;
        stroke-width: 0px;
      }
    </style>
  </defs>
  <g>
    <path class="cls-1" d="M114.23,26.19l10.9-13.41,2.7.95.14,17.28-2.49-.87.08-14.05-.13-.04-8.73,11.02-2.46-.86ZM127.18,23.99l-.68,1.95-7.97-2.8.68-1.95,7.97,2.8Z"/>
    <path class="cls-1" d="M131.33,33.11l-2.05-1.23,6.27-10.46,1.96,1.18-1.02,1.7.14.08c.6-.43,1.25-.65,1.97-.66.72-.01,1.46.21,2.22.67.72.43,1.25.96,1.6,1.57s.49,1.31.43,2.08c-.06.77-.35,1.57-.85,2.42l-3.99,6.65-2.05-1.23,3.85-6.41c.3-.49.47-.98.51-1.44.04-.47-.04-.89-.26-1.28-.22-.39-.56-.72-1.02-1-.48-.29-.96-.44-1.44-.45-.49-.02-.95.11-1.39.38-.44.27-.83.68-1.15,1.23l-3.72,6.2Z"/>
    <path class="cls-1" d="M147.81,29.42l1.87,1.49-7.6,9.54-1.87-1.49,7.6-9.54ZM149.44,28.06c-.1-.24-.13-.49-.1-.74.03-.25.12-.48.28-.67s.36-.34.6-.43.49-.11.75-.06c.26.04.5.15.71.32.21.17.37.37.47.62s.14.49.11.75c-.03.26-.12.48-.28.68-.16.2-.36.34-.6.42-.24.08-.49.1-.76.06-.26-.04-.5-.15-.71-.32-.22-.17-.37-.38-.47-.63Z"/>
    <path class="cls-1" d="M153.6,33.79l1.51,1.72-1.49,1.31.1.12c.67-.25,1.34-.29,2.01-.11.67.18,1.26.57,1.79,1.18.35.4.61.81.77,1.25.16.43.22.87.18,1.31-.04.44-.17.88-.39,1.32l.08.09c.46-.14.93-.18,1.4-.13s.94.2,1.38.44.86.59,1.25,1.03c.49.56.81,1.16.95,1.79.14.63.08,1.28-.19,1.93-.26.65-.73,1.28-1.41,1.88l-6.13,5.4-1.59-1.8,5.96-5.25c.58-.52.88-1.07.9-1.65s-.2-1.11-.65-1.62c-.34-.38-.71-.64-1.1-.77-.4-.13-.81-.15-1.22-.04-.41.1-.81.32-1.18.64l-5.83,5.14-1.57-1.79,6.09-5.36c.32-.28.55-.6.68-.96.13-.35.15-.72.06-1.09-.09-.37-.28-.72-.57-1.05-.3-.34-.66-.57-1.08-.7-.42-.13-.87-.14-1.34-.03-.47.11-.9.34-1.3.69l-5.65,4.97-1.58-1.8,9.15-8.06Z"/>
    <path class="cls-1" d="M164.46,59.72c-.1-.16-.24-.38-.44-.69-.26-.43-.51-.83-.75-1.2-.44-.68-.9-1.14-1.39-1.38-.49-.24-.99-.22-1.51.05-.34.18-.57.43-.71.73-.14.3-.18.64-.14,1s.18.74.4,1.14c.3.55.67.98,1.12,1.27.45.3.91.45,1.4.48s.95-.08,1.39-.32l3.37-1.84c.41-.22.71-.49.91-.81s.28-.68.25-1.09c-.03-.41-.17-.85-.43-1.32-.33-.61-.72-1.03-1.17-1.27-.45-.25-.91-.31-1.39-.19l-1.15-2.11c.63-.26,1.28-.32,1.95-.19.67.13,1.31.44,1.91.94.61.5,1.13,1.16,1.58,1.98.38.69.63,1.41.76,2.15.13.74.04,1.48-.29,2.21s-.97,1.36-1.94,1.88l-7.12,3.86-1.11-2.04,1.47-.8-.04-.08c-.6.02-1.21-.15-1.83-.5-.62-.35-1.15-.94-1.6-1.75-.37-.69-.57-1.38-.62-2.07-.04-.68.1-1.32.41-1.9.32-.58.82-1.06,1.5-1.42,1.11-.6,2.11-.66,2.99-.16.88.49,1.68,1.3,2.39,2.43.2.3.42.64.65,1.03.24.38.47.76.69,1.12.14.24.28.48.42.72l-1.52.85c-.19-.31-.34-.54-.43-.69Z"/>
    <path class="cls-1" d="M162.93,69.9l-.86-2.23,15.17-5.85.86,2.23-15.17,5.85Z"/>
    <path class="cls-1" d="M171.15,137.69l-3.32,4.75c-.7,1.01-1.48,1.73-2.34,2.16s-1.73.6-2.62.49c-.89-.11-1.76-.45-2.6-1.04-.84-.58-1.46-1.28-1.86-2.08-.41-.8-.56-1.68-.45-2.64.11-.96.52-1.94,1.22-2.94l2.29-3.28,1.72,1.2-2.15,3.08c-.45.64-.7,1.25-.77,1.82-.07.57.03,1.09.28,1.55.25.46.64.87,1.15,1.24.53.36,1.05.58,1.57.66.52.08,1.03-.02,1.54-.29.51-.27.99-.73,1.43-1.36l1.75-2.51-11.6-8.09,1.41-2.03,13.34,9.3Z"/>
    <path class="cls-1" d="M158.42,147.79l-1.61,1.66-1.41-1.36-.09.1c.32.61.43,1.26.31,1.92s-.42,1.26-.9,1.77c-.41.4-.66.63-.77.7l-1.65-1.59c.13-.08.28-.19.47-.33s.36-.3.52-.47c.38-.39.64-.83.77-1.31.13-.48.14-.96.02-1.43-.12-.47-.37-.89-.75-1.25l-5.35-5.17,1.66-1.72,8.77,8.48Z"/>
    <path class="cls-1" d="M142.82,146.69c1-.11,1.98.07,2.93.54s1.81,1.19,2.57,2.19c.77,1,1.25,2.02,1.45,3.06.2,1.04.12,2.03-.24,2.97-.36.94-1,1.76-1.91,2.46-.9.69-1.85,1.09-2.85,1.19-1,.11-1.98-.07-2.92-.55-.95-.47-1.8-1.21-2.57-2.21-.76-.99-1.25-2.01-1.45-3.04-.21-1.03-.13-2.02.23-2.96.36-.94,1-1.75,1.89-2.44.91-.7,1.86-1.1,2.87-1.21ZM140.09,151.04c-.16.6-.13,1.23.07,1.9.21.66.55,1.31,1.04,1.95.49.64,1.02,1.14,1.61,1.51s1.19.56,1.82.57c.62,0,1.22-.21,1.78-.64.57-.44.93-.96,1.09-1.57.16-.61.13-1.24-.07-1.91-.2-.67-.55-1.32-1.03-1.96-.49-.63-1.03-1.13-1.62-1.5s-1.2-.55-1.82-.56c-.62,0-1.22.21-1.79.65-.56.43-.93.95-1.08,1.55Z"/>
    <path class="cls-1" d="M138.07,167.36l-5.55-10.11c-.21-.37-.42-.63-.65-.78s-.45-.21-.68-.19c-.23.02-.47.1-.72.24-.11.06-.23.13-.36.21-.13.08-.26.16-.39.23l-.27.18-.99-1.81c.35-.27.77-.54,1.25-.8.57-.31,1.15-.49,1.75-.54.59-.05,1.15.06,1.67.33.52.27.95.72,1.29,1.34l5.78,10.53-2.12,1.16ZM133.58,164.32l5.85-3.21.92,1.67-5.85,3.21-.92-1.67Z"/>
    <path class="cls-1" d="M124.92,157.54c1,.18,1.89.63,2.65,1.36s1.37,1.67,1.8,2.84c.43,1.17.59,2.28.48,3.35s-.47,2-1.08,2.79-1.45,1.38-2.5,1.77c-.92.34-1.84.45-2.75.34-.92-.11-1.76-.51-2.54-1.2-.78-.69-1.41-1.69-1.9-3l-.29-.79,9.11-3.36.62,1.67-6.91,2.55c.21.57.52,1.04.92,1.41s.87.61,1.4.71c.53.1,1.08.04,1.64-.16.61-.23,1.09-.57,1.45-1.04.35-.47.57-1,.64-1.59.07-.59,0-1.18-.2-1.75l-.48-1.31c-.28-.75-.65-1.35-1.12-1.78s-1-.71-1.59-.81c-.59-.11-1.2-.04-1.84.2-.4.16-.75.35-1.04.59-.29.23-.51.48-.67.75-.16.27-.26.54-.31.83l-2.29.84c-.05-.69.05-1.35.31-1.97.26-.62.68-1.19,1.25-1.69s1.27-.9,2.09-1.21c1.11-.41,2.17-.52,3.17-.34Z"/>
    <path class="cls-1" d="M112.86,161.32c.94.38,1.72,1,2.33,1.86.62.86,1.03,1.89,1.24,3.1.21,1.22.17,2.34-.13,3.36s-.83,1.87-1.58,2.54c-.75.67-1.68,1.1-2.79,1.29-.91.16-1.75.13-2.54-.07s-1.45-.58-2-1.12c-.55-.54-.93-1.2-1.15-1.98l2.3-.4c.16.37.37.69.66.96.28.27.62.47,1.02.59.4.12.83.14,1.3.06.65-.11,1.19-.38,1.62-.81.43-.42.73-.98.89-1.65.16-.68.17-1.44.02-2.29-.15-.86-.41-1.59-.79-2.18-.38-.59-.84-1.02-1.39-1.29-.55-.27-1.15-.34-1.82-.21-.44.07-.83.22-1.17.45-.33.23-.59.51-.79.86s-.3.74-.32,1.2l-2.3.4c-.05-.81.09-1.55.4-2.24.32-.69.81-1.26,1.46-1.74.66-.47,1.45-.79,2.36-.95,1.15-.2,2.2-.11,3.13.26Z"/>
    <path class="cls-1" d="M99.86,177.35l-.3-11.53c-.01-.43-.08-.76-.22-.99s-.31-.39-.52-.48c-.21-.08-.46-.12-.76-.12-.13,0-.27.01-.42.02-.15.01-.3.02-.45.02l-.32.03-.05-2.07c.44-.08.93-.12,1.48-.14.65-.02,1.25.09,1.8.32.55.23.99.58,1.33,1.06s.52,1.07.53,1.78l.31,12.01-2.41.06ZM97.26,172.58l6.67-.17.05,1.91-6.67.17-.05-1.91Z"/>
    <path class="cls-1" d="M93.1,176.36c.22.15.39.33.51.55s.17.46.15.71c-.02.25-.1.48-.25.69-.15.21-.34.37-.58.48-.24.11-.49.16-.77.14-.27-.02-.51-.1-.74-.24-.22-.14-.4-.33-.52-.55-.12-.23-.17-.47-.16-.72.02-.25.1-.48.26-.69s.35-.36.59-.48c.24-.11.5-.16.76-.14.28.02.52.1.74.25ZM93.67,174.31l-2.39-.17.87-12.17,2.39.17-.87,12.17Z"/>
    <path class="cls-1" d="M87.1,161.94c.74.69,1.24,1.54,1.51,2.57.27,1.02.28,2.15.02,3.37-.26,1.23-.71,2.26-1.37,3.1-.66.83-1.46,1.42-2.41,1.76-.95.34-1.98.39-3.11.16-1.11-.23-2.03-.69-2.77-1.38-.74-.69-1.24-1.54-1.5-2.57s-.26-2.15,0-3.38c.25-1.22.7-2.25,1.35-3.09.65-.83,1.45-1.42,2.39-1.76.95-.34,1.98-.39,3.08-.16,1.12.23,2.05.69,2.79,1.38ZM82.03,162.71c-.56.27-1.02.71-1.39,1.29-.37.59-.63,1.28-.79,2.06-.16.78-.19,1.52-.09,2.21.1.69.35,1.27.76,1.75.4.48.95.79,1.65.93.7.15,1.34.08,1.9-.2s1.03-.71,1.4-1.3c.37-.59.64-1.27.81-2.06.16-.79.18-1.52.07-2.21-.11-.69-.36-1.27-.77-1.74s-.96-.78-1.67-.93c-.7-.14-1.32-.08-1.88.19Z"/>
    <path class="cls-1" d="M74.51,158.06l2.21.92-4.67,11.27-2.12-.88.76-1.84-.15-.06c-.53.51-1.15.82-1.85.94-.71.12-1.47,0-2.3-.34-.77-.32-1.38-.76-1.82-1.32-.44-.56-.68-1.22-.73-1.99-.05-.77.11-1.61.49-2.51l2.97-7.17,2.21.92-2.86,6.91c-.22.53-.32,1.03-.29,1.5.02.47.17.88.44,1.23.27.35.66.63,1.15.84.51.21,1.01.29,1.49.24.48-.05.93-.25,1.32-.58.4-.33.72-.79.96-1.38l2.77-6.68Z"/>
    <path class="cls-1" d="M17.07,100.64c-.44.46-.74,1-.92,1.62-.17.62-.21,1.27-.12,1.96.12.94.47,1.74,1.04,2.4.57.67,1.34,1.15,2.3,1.45.97.3,2.08.36,3.35.19,1.28-.17,2.34-.53,3.18-1.07.85-.54,1.46-1.21,1.83-2,.37-.79.5-1.65.38-2.59-.1-.69-.31-1.31-.64-1.86s-.76-.99-1.29-1.32-1.14-.53-1.82-.58l-.32-2.46c1.08.03,2.07.29,2.97.79.9.5,1.64,1.19,2.23,2.07.58.89.95,1.91,1.11,3.08.19,1.4.02,2.7-.5,3.88-.52,1.18-1.37,2.17-2.53,2.96s-2.59,1.29-4.28,1.52-3.19.11-4.53-.35c-1.33-.46-2.41-1.19-3.22-2.19-.81-1-1.31-2.21-1.5-3.6-.15-1.14-.08-2.21.23-3.21s.83-1.86,1.57-2.59c.75-.73,1.67-1.25,2.78-1.58l.33,2.46c-.66.22-1.2.57-1.64,1.03Z"/>
    <path class="cls-1" d="M29.02,91.34c-.58.84-1.35,1.46-2.33,1.86-.97.4-2.08.56-3.33.47-1.24-.09-2.33-.4-3.26-.94-.93-.54-1.63-1.25-2.1-2.13s-.66-1.89-.58-3.01c.07-.98.34-1.86.82-2.65s1.19-1.4,2.14-1.82c.95-.43,2.12-.59,3.52-.49l.84.06-.68,9.69-1.78-.13.52-7.35c-.6-.04-1.16.04-1.67.26s-.92.54-1.22.99c-.31.44-.48.96-.53,1.56-.05.65.07,1.23.35,1.75s.67.93,1.19,1.24c.51.31,1.07.49,1.67.54l1.39.1c.8.06,1.49-.04,2.09-.29s1.06-.62,1.4-1.12c.34-.49.53-1.08.58-1.76.02-.43-.01-.83-.11-1.19-.09-.36-.23-.67-.41-.92-.18-.26-.39-.46-.63-.62l.17-2.43c.65.23,1.21.6,1.67,1.09.46.49.8,1.1,1.03,1.83.22.73.3,1.52.24,2.4-.08,1.18-.41,2.19-.99,3.03Z"/>
    <path class="cls-1" d="M31.11,78.71l-.6,2.31-11.8-3.08.58-2.22,1.92.5.04-.15c-.58-.45-.97-1.02-1.19-1.71-.21-.69-.21-1.46.02-2.32.21-.81.56-1.47,1.06-1.98.49-.51,1.12-.84,1.87-1,.76-.15,1.61-.11,2.56.14l7.51,1.96-.6,2.31-7.24-1.89c-.56-.15-1.07-.17-1.53-.08-.46.09-.85.29-1.16.61-.31.32-.53.74-.67,1.26-.14.54-.15,1.04-.03,1.51.12.47.37.88.76,1.23.39.35.89.6,1.5.76l7,1.82Z"/>
    <path class="cls-1" d="M21.56,59.65l10.59,4.57c.39.17.72.24.99.22s.48-.11.65-.27.31-.37.42-.64c.05-.12.1-.25.16-.39.05-.14.11-.28.17-.42l.11-.31,1.9.82c-.11.43-.28.9-.5,1.4-.26.6-.61,1.1-1.05,1.5s-.95.66-1.52.76c-.58.11-1.19.02-1.84-.26l-11.03-4.77.96-2.22ZM26.98,59.3l-2.65,6.12-1.75-.76,2.65-6.12,1.75.76Z"/>
    <path class="cls-1" d="M37.98,59.33c-.9.47-1.88.66-2.93.56-1.05-.1-2.11-.48-3.17-1.14-1.06-.66-1.87-1.44-2.44-2.35s-.86-1.87-.86-2.87c0-1,.3-1.98.89-2.93.52-.83,1.17-1.49,1.97-1.96.79-.47,1.71-.68,2.75-.61,1.04.06,2.15.47,3.34,1.21l.71.44-5.13,8.25-1.52-.94,3.89-6.26c-.52-.32-1.05-.5-1.6-.55-.55-.05-1.06.05-1.54.3-.48.25-.88.63-1.2,1.13-.34.55-.51,1.12-.51,1.71,0,.59.16,1.14.47,1.65.31.51.72.93,1.23,1.26l1.18.74c.68.42,1.34.66,1.98.72s1.23-.06,1.76-.34c.53-.28.98-.71,1.34-1.29.22-.37.38-.74.46-1.1.08-.36.11-.7.07-1.01s-.13-.59-.27-.85l1.29-2.07c.47.51.79,1.09.96,1.74s.19,1.35.05,2.1c-.14.75-.44,1.49-.91,2.23-.62,1-1.39,1.74-2.29,2.21Z"/>
    <path class="cls-1" d="M35.06,42.92l1.5-1.76,1.48,1.27.09-.1c-.36-.59-.5-1.23-.43-1.9s.34-1.28.79-1.82c.38-.42.62-.67.72-.74l1.74,1.49c-.12.08-.27.2-.45.36-.18.15-.34.32-.49.5-.36.42-.58.87-.69,1.36-.1.49-.08.96.07,1.43.15.46.42.87.82,1.21l5.65,4.84-1.56,1.82-9.26-7.93Z"/>
  </g>
  <path class="cls-1" d="M172.39,90.63c0-.63.22-1.16.65-1.6.43-.44.97-.65,1.6-.65s1.16.22,1.6.65c.44.44.65.97.65,1.6s-.22,1.16-.65,1.6c-.43.44-.97.65-1.6.65s-1.16-.22-1.6-.65c-.44-.43-.65-.97-.65-1.6ZM176.39,95.13c0-.63.22-1.16.65-1.6.43-.44.97-.65,1.6-.65s1.16.22,1.6.65c.44.43.65.97.65,1.6s-.22,1.16-.65,1.6c-.43.44-.97.65-1.6.65s-1.16-.22-1.6-.65c-.44-.43-.65-.97-.65-1.6ZM176.39,101.13c0-.63.22-1.16.65-1.6.43-.44.97-.65,1.6-.65s1.16.22,1.6.65c.44.43.65.97.65,1.6s-.22,1.16-.65,1.6c-.43.44-.97.65-1.6.65s-1.16-.22-1.6-.65c-.44-.43-.65-.97-.65-1.6ZM172.39,105.63c0-.63.22-1.16.65-1.6.43-.44.97-.65,1.6-.65s1.16.22,1.6.65c.44.43.65.97.65,1.6s-.22,1.16-.65,1.6c-.43.44-.97.65-1.6.65s-1.16-.22-1.6-.65c-.44-.43-.65-.97-.65-1.6ZM162.39,92.78c0-.69.26-1.26.79-1.71.53-.46,1.15-.69,1.86-.69.84,0,1.57.29,2.18.87.61.58,1.23,1.16,1.84,1.72.52.48,1.09.9,1.69,1.26.61.35,1.17.77,1.71,1.24.4.35.74.75,1.01,1.19.27.45.41.94.41,1.46s-.13,1.03-.39,1.48c-.26.46-.59.85-1,1.19-.53.47-1.11.88-1.72,1.23-.61.36-1.18.77-1.72,1.25-.61.56-1.23,1.14-1.84,1.72-.61.58-1.34.87-2.18.87-.72,0-1.34-.23-1.86-.69-.53-.46-.79-1.03-.79-1.71,0-.9.08-1.79.23-2.68s.23-1.78.23-2.68-.08-1.79-.23-2.68-.23-1.78-.23-2.68Z"/>
  <path class="cls-1" d="M69.26,26.24c-.59.21-1.17.18-1.72-.09-.56-.27-.94-.7-1.15-1.29s-.18-1.17.09-1.72c.27-.56.7-.94,1.29-1.15s1.17-.18,1.72.09c.56.27.94.7,1.15,1.29s.18,1.17-.09,1.72c-.27.56-.7.94-1.29,1.15ZM72.18,20.97c-.59.21-1.17.18-1.72-.09-.56-.27-.94-.7-1.15-1.29s-.18-1.17.09-1.72c.27-.56.7-.94,1.29-1.15s1.17-.18,1.72.09c.56.27.94.7,1.15,1.29s.18,1.17-.09,1.72c-.27.56-.7.94-1.29,1.15ZM77.84,18.98c-.59.21-1.17.18-1.72-.09-.56-.27-.94-.7-1.15-1.29s-.18-1.17.09-1.72c.27-.56.7-.94,1.29-1.15s1.17-.18,1.72.09c.56.27.94.7,1.15,1.29s.18,1.17-.09,1.72c-.27.56-.7.94-1.29,1.15ZM83.41,21.26c-.59.21-1.17.18-1.72-.09-.56-.27-.94-.7-1.15-1.29s-.18-1.17.09-1.72c.27-.56.7-.94,1.29-1.15s1.17-.18,1.72.09c.56.27.94.7,1.15,1.29s.18,1.17-.09,1.72c-.27.56-.7.94-1.29,1.15ZM74.61,34.96c-.65.23-1.27.17-1.88-.17-.61-.34-1.03-.85-1.26-1.53-.28-.79-.25-1.58.1-2.35.35-.77.68-1.54,1.01-2.31.28-.65.49-1.32.62-2.01.13-.69.33-1.36.61-2.02.19-.49.46-.94.79-1.35.33-.41.75-.7,1.24-.87s1.01-.22,1.53-.12c.52.09,1,.28,1.46.55.62.35,1.19.75,1.73,1.21.54.46,1.12.86,1.75,1.2.74.39,1.48.78,2.23,1.17.75.39,1.27.98,1.55,1.77.24.68.23,1.34-.03,1.98-.26.65-.71,1.08-1.36,1.31-.85.3-1.72.52-2.6.68s-1.75.38-2.6.68-1.67.67-2.45,1.1-1.6.8-2.45,1.1Z"/>
  <path class="cls-1" d="M42.23,143.24c.32.54.4,1.11.25,1.71-.15.6-.5,1.05-1.04,1.38s-1.11.4-1.71.25c-.6-.15-1.05-.5-1.38-1.04s-.4-1.11-.25-1.71c.15-.6.5-1.05,1.04-1.38s1.11-.4,1.71-.25c.6.15,1.05.5,1.38,1.04ZM36.5,141.4c.32.54.4,1.11.25,1.71-.15.6-.5,1.05-1.04,1.38s-1.11.4-1.71.25c-.6-.15-1.05-.5-1.38-1.04s-.4-1.11-.25-1.71c.15-.6.5-1.05,1.04-1.38s1.11-.4,1.71-.25c.6.15,1.05.5,1.38,1.04ZM33.44,136.24c.32.54.4,1.11.25,1.71-.15.6-.5,1.05-1.04,1.38s-1.11.4-1.71.25c-.6-.15-1.05-.5-1.38-1.04s-.4-1.11-.25-1.71c.15-.6.5-1.05,1.04-1.38s1.11-.4,1.71-.25c.6.15,1.05.5,1.38,1.04ZM34.59,130.33c.32.54.4,1.11.25,1.71-.15.6-.5,1.05-1.04,1.38s-1.11.4-1.71.25c-.6-.15-1.05-.5-1.38-1.04s-.4-1.11-.25-1.71c.15-.6.5-1.05,1.04-1.38s1.11-.4,1.71-.25c.6.15,1.05.5,1.38,1.04ZM49.74,136.3c.35.59.41,1.22.19,1.88-.22.66-.64,1.17-1.25,1.54-.72.43-1.5.55-2.32.36-.83-.19-1.65-.37-2.46-.54-.7-.15-1.39-.22-2.1-.22-.7,0-1.4-.06-2.1-.2-.52-.09-1.02-.27-1.48-.51-.46-.25-.83-.6-1.1-1.05s-.41-.95-.42-1.47c0-.52.08-1.04.25-1.54.22-.67.5-1.32.85-1.93.34-.62.62-1.27.84-1.95.24-.8.48-1.6.71-2.42.23-.81.71-1.44,1.43-1.86.62-.36,1.27-.48,1.95-.36.69.13,1.2.48,1.55,1.07.46.77.85,1.58,1.17,2.42s.71,1.64,1.17,2.42.98,1.5,1.56,2.19,1.1,1.41,1.56,2.19Z"/>
</svg>